<?xml version="1.0" encoding="utf-8" ?>
<svg baseProfile="full" height="683.0" version="1.1" viewBox="0,0,939.5999999999999,683.0" width="939.5999999999999" xmlns="http://www.w3.org/2000/svg" xmlns:ev="http://www.w3.org/2001/xml-events" xmlns:xlink="http://www.w3.org/1999/xlink"><defs /><svg baseProfile="full" height="100%" version="1.1" width="100%" x="0" xmlns="http://www.w3.org/2000/svg" xmlns:ev="http://www.w3.org/2001/xml-events" xmlns:xlink="http://www.w3.org/1999/xlink" y="0"><defs /><svg font-family="Lucida Console" font-size="10" height="13.0" width="162.0" x="12.0" y="20.0"><defs /><text x="0" y="10.0"><tspan fill="rgb(0,0,0)">annotation  verified='yes':</tspan></text></svg><svg font-family="Lucida Console" font-size="10" height="13.0" width="102.0" x="24.0" y="33.0"><defs /><text x="0" y="10.0"><tspan fill="rgb(0,0,0)">folder: train_img</tspan></text></svg><svg font-family="Lucida Console" font-size="10" height="13.0" width="150.0" x="24.0" y="46.0"><defs /><text x="0" y="10.0"><tspan fill="rgb(0,0,0)">filename: 43b27b5ab_0.png</tspan></text></svg><svg font-family="Lucida Console" font-size="10" height="13.0" width="420.0" x="24.0" y="59.0"><defs /><text x="0" y="10.0"><tspan fill="rgb(0,0,0)">path:</tspan><tspan fill="rgb(0,0,0)"> D:\RainYQ\rfcx</tspan><tspan fill="rgb(0,0,0)">-species-audio-detection\train_img\43b27b5ab_0.png</tspan></text></svg><svg font-family="Lucida Console" font-size="10" height="13.0" width="42.0" x="24.0" y="72.0"><defs /><text x="0" y="10.0"><tspan fill="rgb(0,0,0)">source:</tspan><tspan fill="rgb(0,128,255)" /></text></svg><svg font-family="Lucida Console" font-size="10" height="13.0" width="300.0" x="36.0" y="85.0"><defs /><text x="0" y="10.0"><tspan fill="rgb(0,0,0)">database:</tspan><tspan fill="rgb(0,128,255)">Kaggle Rai</tspan><tspan fill="rgb(0,0,0)">n</tspan><tspan fill="rgb(0,128,255)">forest Co</tspan><tspan fill="rgb(0,0,0)">n</tspan><tspan fill="rgb(0,128,255)">necti</tspan><tspan fill="rgb(0,0,0)">o</tspan><tspan fill="rgb(0,0,0)">n</tspan><tspan fill="rgb(0,128,255)">Species Audio</tspan></text></svg><svg font-family="Lucida Console" font-size="10" height="13.0" width="30.0" x="24.0" y="98.0"><defs /><text x="0" y="10.0"><tspan fill="rgb(0,0,0)">size:</tspan><tspan fill="rgb(0,128,255)" /></text></svg><svg font-family="Lucida Console" font-size="10" height="13.0" width="60.0" x="36.0" y="111.0"><defs /><text x="0" y="10.0"><tspan fill="rgb(0,0,0)">width: 387</tspan></text></svg><svg font-family="Lucida Console" font-size="10" height="13.0" width="66.0" x="36.0" y="124.0"><defs /><text x="0" y="10.0"><tspan fill="rgb(0,0,0)">height: 154</tspan></text></svg><svg font-family="Lucida Console" font-size="10" height="13.0" width="48.0" x="36.0" y="137.0"><defs /><text x="0" y="10.0"><tspan fill="rgb(0,0,0)">depth: 3</tspan></text></svg><svg font-family="Lucida Console" font-size="10" height="13.0" width="72.0" x="24.0" y="150.0"><defs /><text x="0" y="10.0"><tspan fill="rgb(0,0,0)">segmented: 0</tspan></text></svg><svg font-family="Lucida Console" font-size="10" height="13.0" width="42.0" x="24.0" y="163.0"><defs /><text x="0" y="10.0"><tspan fill="rgb(0,0,0)">object:</tspan><tspan fill="rgb(0,128,255)" /></text></svg><svg font-family="Lucida Console" font-size="10" height="13.0" width="48.0" x="36.0" y="176.0"><defs /><text x="0" y="10.0"><tspan fill="rgb(0,0,0)">name: 19</tspan></text></svg><svg font-family="Lucida Console" font-size="10" height="13.0" width="102.0" x="36.0" y="189.0"><defs /><text x="0" y="10.0"><tspan fill="rgb(0,0,0)">pose: Unspecified</tspan></text></svg><svg font-family="Lucida Console" font-size="10" height="13.0" width="72.0" x="36.0" y="202.0"><defs /><text x="0" y="10.0"><tspan fill="rgb(0,0,0)">truncated: 0</tspan></text></svg><svg font-family="Lucida Console" font-size="10" height="13.0" width="72.0" x="36.0" y="215.0"><defs /><text x="0" y="10.0"><tspan fill="rgb(0,0,0)">difficult: 0</tspan></text></svg><svg font-family="Lucida Console" font-size="10" height="13.0" width="42.0" x="36.0" y="228.0"><defs /><text x="0" y="10.0"><tspan fill="rgb(0,0,0)">bndbox:</tspan><tspan fill="rgb(0,128,255)" /></text></svg><svg font-family="Lucida Console" font-size="10" height="13.0" width="66.0" x="48.0" y="241.0"><defs /><text x="0" y="10.0"><tspan fill="rgb(0,0,0)">xmin: 188</tspan><tspan fill="rgb(0,128,255)">.0</tspan></text></svg><svg font-family="Lucida Console" font-size="10" height="13.0" width="60.0" x="48.0" y="254.0"><defs /><text x="0" y="10.0"><tspan fill="rgb(0,0,0)">ymin: 40</tspan><tspan fill="rgb(0,128,255)">.0</tspan></text></svg><svg font-family="Lucida Console" font-size="10" height="13.0" width="66.0" x="48.0" y="267.0"><defs /><text x="0" y="10.0"><tspan fill="rgb(0,0,0)">xmax: 215</tspan><tspan fill="rgb(0,128,255)">.0</tspan></text></svg><svg font-family="Lucida Console" font-size="10" height="13.0" width="60.0" x="48.0" y="280.0"><defs /><text x="0" y="10.0"><tspan fill="rgb(0,0,0)">ymax: 68</tspan><tspan fill="rgb(0,128,255)">.0</tspan></text></svg><svg font-family="Lucida Console" font-size="10" height="13.0" width="42.0" x="24.0" y="293.0"><defs /><text x="0" y="10.0"><tspan fill="rgb(0,0,0)">object:</tspan><tspan fill="rgb(0,128,255)" /></text></svg><svg font-family="Lucida Console" font-size="10" height="13.0" width="48.0" x="36.0" y="306.0"><defs /><text x="0" y="10.0"><tspan fill="rgb(0,0,0)">name: 19</tspan></text></svg><svg font-family="Lucida Console" font-size="10" height="13.0" width="102.0" x="36.0" y="319.0"><defs /><text x="0" y="10.0"><tspan fill="rgb(0,0,0)">pose: Unspecified</tspan></text></svg><svg font-family="Lucida Console" font-size="10" height="13.0" width="72.0" x="36.0" y="332.0"><defs /><text x="0" y="10.0"><tspan fill="rgb(0,0,0)">truncated: 0</tspan></text></svg><svg font-family="Lucida Console" font-size="10" height="13.0" width="72.0" x="36.0" y="345.0"><defs /><text x="0" y="10.0"><tspan fill="rgb(0,0,0)">difficult: 0</tspan></text></svg><svg font-family="Lucida Console" font-size="10" height="13.0" width="42.0" x="36.0" y="358.0"><defs /><text x="0" y="10.0"><tspan fill="rgb(0,0,0)">bndbox:</tspan><tspan fill="rgb(0,128,255)" /></text></svg><svg font-family="Lucida Console" font-size="10" height="13.0" width="66.0" x="48.0" y="371.0"><defs /><text x="0" y="10.0"><tspan fill="rgb(0,0,0)">xmin: 292</tspan><tspan fill="rgb(0,128,255)">.0</tspan></text></svg><svg font-family="Lucida Console" font-size="10" height="13.0" width="60.0" x="48.0" y="384.0"><defs /><text x="0" y="10.0"><tspan fill="rgb(0,0,0)">ymin: 38</tspan><tspan fill="rgb(0,128,255)">.0</tspan></text></svg><svg font-family="Lucida Console" font-size="10" height="13.0" width="66.0" x="48.0" y="397.0"><defs /><text x="0" y="10.0"><tspan fill="rgb(0,0,0)">xmax: 333</tspan><tspan fill="rgb(0,128,255)">.0</tspan></text></svg><svg font-family="Lucida Console" font-size="10" height="13.0" width="60.0" x="48.0" y="410.0"><defs /><text x="0" y="10.0"><tspan fill="rgb(0,0,0)">ymax: 69</tspan><tspan fill="rgb(0,128,255)">.0</tspan></text></svg><svg font-family="Lucida Console" font-size="10" height="13.0" width="42.0" x="24.0" y="423.0"><defs /><text x="0" y="10.0"><tspan fill="rgb(0,0,0)">object:</tspan><tspan fill="rgb(0,128,255)" /></text></svg><svg font-family="Lucida Console" font-size="10" height="13.0" width="48.0" x="36.0" y="436.0"><defs /><text x="0" y="10.0"><tspan fill="rgb(0,0,0)">name: 19</tspan></text></svg><svg font-family="Lucida Console" font-size="10" height="13.0" width="102.0" x="36.0" y="449.0"><defs /><text x="0" y="10.0"><tspan fill="rgb(0,0,0)">pose: Unspecified</tspan></text></svg><svg font-family="Lucida Console" font-size="10" height="13.0" width="72.0" x="36.0" y="462.0"><defs /><text x="0" y="10.0"><tspan fill="rgb(0,0,0)">truncated: 0</tspan></text></svg><svg font-family="Lucida Console" font-size="10" height="13.0" width="72.0" x="36.0" y="475.0"><defs /><text x="0" y="10.0"><tspan fill="rgb(0,0,0)">difficult: 0</tspan></text></svg><svg font-family="Lucida Console" font-size="10" height="13.0" width="42.0" x="36.0" y="488.0"><defs /><text x="0" y="10.0"><tspan fill="rgb(0,0,0)">bndbox:</tspan><tspan fill="rgb(0,128,255)" /></text></svg><svg font-family="Lucida Console" font-size="10" height="13.0" width="60.0" x="48.0" y="501.0"><defs /><text x="0" y="10.0"><tspan fill="rgb(0,0,0)">xmin: 77</tspan><tspan fill="rgb(0,128,255)">.0</tspan></text></svg><svg font-family="Lucida Console" font-size="10" height="13.0" width="60.0" x="48.0" y="514.0"><defs /><text x="0" y="10.0"><tspan fill="rgb(0,0,0)">ymin: 44</tspan><tspan fill="rgb(0,128,255)">.0</tspan></text></svg><svg font-family="Lucida Console" font-size="10" height="13.0" width="66.0" x="48.0" y="527.0"><defs /><text x="0" y="10.0"><tspan fill="rgb(0,0,0)">xmax: 119</tspan><tspan fill="rgb(0,128,255)">.0</tspan></text></svg><svg font-family="Lucida Console" font-size="10" height="13.0" width="60.0" x="48.0" y="540.0"><defs /><text x="0" y="10.0"><tspan fill="rgb(0,0,0)">ymax: 67</tspan><tspan fill="rgb(0,128,255)">.0</tspan></text></svg><svg font-family="Lucida Console" font-size="10" height="13.0" width="42.0" x="24.0" y="553.0"><defs /><text x="0" y="10.0"><tspan fill="rgb(0,0,0)">object:</tspan><tspan fill="rgb(0,128,255)" /></text></svg><svg font-family="Lucida Console" font-size="10" height="13.0" width="48.0" x="36.0" y="566.0"><defs /><text x="0" y="10.0"><tspan fill="rgb(0,0,0)">name: 19</tspan></text></svg><svg font-family="Lucida Console" font-size="10" height="13.0" width="102.0" x="36.0" y="579.0"><defs /><text x="0" y="10.0"><tspan fill="rgb(0,0,0)">pose: Unspecified</tspan></text></svg><svg font-family="Lucida Console" font-size="10" height="13.0" width="72.0" x="36.0" y="592.0"><defs /><text x="0" y="10.0"><tspan fill="rgb(0,0,0)">truncated: 1</tspan></text></svg><svg font-family="Lucida Console" font-size="10" height="13.0" width="72.0" x="36.0" y="605.0"><defs /><text x="0" y="10.0"><tspan fill="rgb(0,0,0)">difficult: 0</tspan></text></svg><svg font-family="Lucida Console" font-size="10" height="13.0" width="42.0" x="36.0" y="618.0"><defs /><text x="0" y="10.0"><tspan fill="rgb(0,0,0)">bndbox:</tspan><tspan fill="rgb(0,128,255)" /></text></svg><svg font-family="Lucida Console" font-size="10" height="13.0" width="54.0" x="48.0" y="631.0"><defs /><text x="0" y="10.0"><tspan fill="rgb(0,0,0)">xmin: 1</tspan><tspan fill="rgb(0,128,255)">.0</tspan></text></svg><svg font-family="Lucida Console" font-size="10" height="13.0" width="60.0" x="48.0" y="644.0"><defs /><text x="0" y="10.0"><tspan fill="rgb(0,0,0)">ymin: 45</tspan><tspan fill="rgb(0,128,255)">.0</tspan></text></svg><svg font-family="Lucida Console" font-size="10" height="13.0" width="60.0" x="48.0" y="657.0"><defs /><text x="0" y="10.0"><tspan fill="rgb(0,0,0)">xmax: 36</tspan><tspan fill="rgb(0,128,255)">.0</tspan></text></svg><svg font-family="Lucida Console" font-size="10" height="13.0" width="60.0" x="48.0" y="670.0"><defs /><text x="0" y="10.0"><tspan fill="rgb(0,0,0)">ymax: 66</tspan><tspan fill="rgb(0,128,255)">.0</tspan></text></svg></svg><svg baseProfile="full" height="100%" version="1.1" width="100%" x="532.8" xmlns="http://www.w3.org/2000/svg" xmlns:ev="http://www.w3.org/2001/xml-events" xmlns:xlink="http://www.w3.org/1999/xlink" y="0"><defs /><svg font-family="Lucida Console" font-size="10" height="13.0" width="66.0" x="12.0" y="20.0"><defs /><text x="0" y="10.0"><tspan fill="rgb(0,0,0)">annotation:</tspan></text></svg><svg font-family="Lucida Console" font-size="10" height="13.0" width="120.0" x="24.0" y="33.0"><defs /><text x="0" y="10.0"><tspan fill="rgb(0,0,0)">folder: VOC2007_test</tspan></text></svg><svg font-family="Lucida Console" font-size="10" height="13.0" width="150.0" x="24.0" y="46.0"><defs /><text x="0" y="10.0"><tspan fill="rgb(0,0,0)">filename: 43b27b5ab_0.png</tspan></text></svg><svg font-family="Lucida Console" font-size="10" height="13.0" width="42.0" x="24.0" y="59.0"><defs /><text x="0" y="10.0"><tspan fill="rgb(0,0,0)">source:</tspan><tspan fill="rgb(0,128,255)" /></text></svg><svg font-family="Lucida Console" font-size="10" height="13.0" width="96.0" x="36.0" y="72.0"><defs /><text x="0" y="10.0"><tspan fill="rgb(0,0,0)">database:</tspan><tspan fill="rgb(0,128,255)">U</tspan><tspan fill="rgb(0,0,0)">n</tspan><tspan fill="rgb(0,128,255)">kn</tspan><tspan fill="rgb(0,0,0)">o</tspan><tspan fill="rgb(0,128,255)">w</tspan><tspan fill="rgb(0,0,0)">n</tspan></text></svg><svg font-family="Lucida Console" font-size="10" height="13.0" width="30.0" x="24.0" y="85.0"><defs /><text x="0" y="10.0"><tspan fill="rgb(0,0,0)">size:</tspan><tspan fill="rgb(0,128,255)" /></text></svg><svg font-family="Lucida Console" font-size="10" height="13.0" width="60.0" x="36.0" y="98.0"><defs /><text x="0" y="10.0"><tspan fill="rgb(0,0,0)">width: 387</tspan></text></svg><svg font-family="Lucida Console" font-size="10" height="13.0" width="66.0" x="36.0" y="111.0"><defs /><text x="0" y="10.0"><tspan fill="rgb(0,0,0)">height: 154</tspan></text></svg><svg font-family="Lucida Console" font-size="10" height="13.0" width="48.0" x="36.0" y="124.0"><defs /><text x="0" y="10.0"><tspan fill="rgb(0,0,0)">depth: 3</tspan></text></svg><svg font-family="Lucida Console" font-size="10" height="13.0" width="72.0" x="24.0" y="137.0"><defs /><text x="0" y="10.0"><tspan fill="rgb(0,0,0)">segmented: 0</tspan></text></svg><svg font-family="Lucida Console" font-size="10" height="13.0" width="42.0" x="24.0" y="150.0"><defs /><text x="0" y="10.0"><tspan fill="rgb(0,0,0)">object:</tspan><tspan fill="rgb(0,128,255)" /></text></svg><svg font-family="Lucida Console" font-size="10" height="13.0" width="48.0" x="36.0" y="163.0"><defs /><text x="0" y="10.0"><tspan fill="rgb(0,0,0)">name: 19</tspan></text></svg><svg font-family="Lucida Console" font-size="10" height="13.0" width="72.0" x="36.0" y="176.0"><defs /><text x="0" y="10.0"><tspan fill="rgb(0,0,0)">difficult: 0</tspan></text></svg><svg font-family="Lucida Console" font-size="10" height="13.0" width="42.0" x="36.0" y="189.0"><defs /><text x="0" y="10.0"><tspan fill="rgb(0,0,0)">bndbox:</tspan><tspan fill="rgb(0,128,255)" /></text></svg><svg font-family="Lucida Console" font-size="10" height="13.0" width="54.0" x="48.0" y="202.0"><defs /><text x="0" y="10.0"><tspan fill="rgb(0,0,0)">xmin: 188</tspan></text></svg><svg font-family="Lucida Console" font-size="10" height="13.0" width="48.0" x="48.0" y="215.0"><defs /><text x="0" y="10.0"><tspan fill="rgb(0,0,0)">ymin: 40</tspan></text></svg><svg font-family="Lucida Console" font-size="10" height="13.0" width="54.0" x="48.0" y="228.0"><defs /><text x="0" y="10.0"><tspan fill="rgb(0,0,0)">xmax: 215</tspan></text></svg><svg font-family="Lucida Console" font-size="10" height="13.0" width="48.0" x="48.0" y="241.0"><defs /><text x="0" y="10.0"><tspan fill="rgb(0,0,0)">ymax: 68</tspan></text></svg><svg font-family="Lucida Console" font-size="10" height="13.0" width="42.0" x="24.0" y="254.0"><defs /><text x="0" y="10.0"><tspan fill="rgb(0,0,0)">object:</tspan><tspan fill="rgb(0,128,255)" /></text></svg><svg font-family="Lucida Console" font-size="10" height="13.0" width="48.0" x="36.0" y="267.0"><defs /><text x="0" y="10.0"><tspan fill="rgb(0,0,0)">name: 19</tspan></text></svg><svg font-family="Lucida Console" font-size="10" height="13.0" width="72.0" x="36.0" y="280.0"><defs /><text x="0" y="10.0"><tspan fill="rgb(0,0,0)">difficult: 0</tspan></text></svg><svg font-family="Lucida Console" font-size="10" height="13.0" width="42.0" x="36.0" y="293.0"><defs /><text x="0" y="10.0"><tspan fill="rgb(0,0,0)">bndbox:</tspan><tspan fill="rgb(0,128,255)" /></text></svg><svg font-family="Lucida Console" font-size="10" height="13.0" width="54.0" x="48.0" y="306.0"><defs /><text x="0" y="10.0"><tspan fill="rgb(0,0,0)">xmin: 292</tspan></text></svg><svg font-family="Lucida Console" font-size="10" height="13.0" width="48.0" x="48.0" y="319.0"><defs /><text x="0" y="10.0"><tspan fill="rgb(0,0,0)">ymin: 38</tspan></text></svg><svg font-family="Lucida Console" font-size="10" height="13.0" width="54.0" x="48.0" y="332.0"><defs /><text x="0" y="10.0"><tspan fill="rgb(0,0,0)">xmax: 333</tspan></text></svg><svg font-family="Lucida Console" font-size="10" height="13.0" width="48.0" x="48.0" y="345.0"><defs /><text x="0" y="10.0"><tspan fill="rgb(0,0,0)">ymax: 69</tspan></text></svg><svg font-family="Lucida Console" font-size="10" height="13.0" width="42.0" x="24.0" y="358.0"><defs /><text x="0" y="10.0"><tspan fill="rgb(0,0,0)">object:</tspan><tspan fill="rgb(0,128,255)" /></text></svg><svg font-family="Lucida Console" font-size="10" height="13.0" width="48.0" x="36.0" y="371.0"><defs /><text x="0" y="10.0"><tspan fill="rgb(0,0,0)">name: 19</tspan></text></svg><svg font-family="Lucida Console" font-size="10" height="13.0" width="72.0" x="36.0" y="384.0"><defs /><text x="0" y="10.0"><tspan fill="rgb(0,0,0)">difficult: 0</tspan></text></svg><svg font-family="Lucida Console" font-size="10" height="13.0" width="42.0" x="36.0" y="397.0"><defs /><text x="0" y="10.0"><tspan fill="rgb(0,0,0)">bndbox:</tspan><tspan fill="rgb(0,128,255)" /></text></svg><svg font-family="Lucida Console" font-size="10" height="13.0" width="48.0" x="48.0" y="410.0"><defs /><text x="0" y="10.0"><tspan fill="rgb(0,0,0)">xmin: 77</tspan></text></svg><svg font-family="Lucida Console" font-size="10" height="13.0" width="48.0" x="48.0" y="423.0"><defs /><text x="0" y="10.0"><tspan fill="rgb(0,0,0)">ymin: 44</tspan></text></svg><svg font-family="Lucida Console" font-size="10" height="13.0" width="54.0" x="48.0" y="436.0"><defs /><text x="0" y="10.0"><tspan fill="rgb(0,0,0)">xmax: 119</tspan></text></svg><svg font-family="Lucida Console" font-size="10" height="13.0" width="48.0" x="48.0" y="449.0"><defs /><text x="0" y="10.0"><tspan fill="rgb(0,0,0)">ymax: 67</tspan></text></svg><svg font-family="Lucida Console" font-size="10" height="13.0" width="42.0" x="24.0" y="462.0"><defs /><text x="0" y="10.0"><tspan fill="rgb(0,0,0)">object:</tspan><tspan fill="rgb(0,128,255)" /></text></svg><svg font-family="Lucida Console" font-size="10" height="13.0" width="48.0" x="36.0" y="475.0"><defs /><text x="0" y="10.0"><tspan fill="rgb(0,0,0)">name: 19</tspan></text></svg><svg font-family="Lucida Console" font-size="10" height="13.0" width="72.0" x="36.0" y="488.0"><defs /><text x="0" y="10.0"><tspan fill="rgb(0,0,0)">difficult: 0</tspan></text></svg><svg font-family="Lucida Console" font-size="10" height="13.0" width="42.0" x="36.0" y="501.0"><defs /><text x="0" y="10.0"><tspan fill="rgb(0,0,0)">bndbox:</tspan><tspan fill="rgb(0,128,255)" /></text></svg><svg font-family="Lucida Console" font-size="10" height="13.0" width="42.0" x="48.0" y="514.0"><defs /><text x="0" y="10.0"><tspan fill="rgb(0,0,0)">xmin: 1</tspan></text></svg><svg font-family="Lucida Console" font-size="10" height="13.0" width="48.0" x="48.0" y="527.0"><defs /><text x="0" y="10.0"><tspan fill="rgb(0,0,0)">ymin: 45</tspan></text></svg><svg font-family="Lucida Console" font-size="10" height="13.0" width="48.0" x="48.0" y="540.0"><defs /><text x="0" y="10.0"><tspan fill="rgb(0,0,0)">xmax: 36</tspan></text></svg><svg font-family="Lucida Console" font-size="10" height="13.0" width="48.0" x="48.0" y="553.0"><defs /><text x="0" y="10.0"><tspan fill="rgb(0,0,0)">ymax: 66</tspan></text></svg></svg><svg baseProfile="full" height="137.5" version="1.1" width="198.0" x="652.8" xmlns="http://www.w3.org/2000/svg" xmlns:ev="http://www.w3.org/2001/xml-events" xmlns:xlink="http://www.w3.org/1999/xlink" y="0"><defs /><svg height="137.5" width="198.0" x="12.0" y="0"><defs /><svg height="12.5" viewBox="0,0,96.0,12.5" width="96.0" x="12.0" y="0"><defs /><text fill="rgb(0,0,0)" font-family="Lucida Console" font-size="10" opacity="1.0" x="0" y="9.375">DiffxNodeUnknown</text><rect fill="rgb(208,208,208)" height="12.5" opacity="0.3" width="96.0" x="0" y="0" /></svg><svg height="12.5" viewBox="0,0,108.0,12.5" width="108.0" x="12.0" y="12.5"><defs /><text fill="rgb(0,0,0)" font-family="Lucida Console" font-size="10" opacity="1.0" x="0" y="9.375">DiffxNodeUnchanged</text><rect fill="rgb(126,98,161)" height="12.5" opacity="0.3" width="108.0" x="0" y="0" /></svg><svg height="12.5" viewBox="0,0,96.0,12.5" width="96.0" x="12.0" y="25.0"><defs /><text fill="rgb(0,0,0)" font-family="Lucida Console" font-size="10" opacity="1.0" x="0" y="9.375">DiffxNodeChanged</text><rect fill="rgb(252,209,42)" height="12.5" opacity="0.3" width="96.0" x="0" y="0" /></svg><svg height="12.5" viewBox="0,0,96.0,12.5" width="96.0" x="12.0" y="37.5"><defs /><text fill="rgb(0,0,0)" font-family="Lucida Console" font-size="10" opacity="1.0" x="0" y="9.375">DiffxNodeDeleted</text><rect fill="rgb(255,0,255)" height="12.5" opacity="0.3" width="96.0" x="0" y="0" /></svg><svg height="12.5" viewBox="0,0,84.0,12.5" width="84.0" x="12.0" y="50.0"><defs /><text fill="rgb(0,0,0)" font-family="Lucida Console" font-size="10" opacity="1.0" x="0" y="9.375">DiffxNodeAdded</text><rect fill="rgb(15,255,0)" height="12.5" opacity="0.3" width="84.0" x="0" y="0" /></svg><svg height="12.5" viewBox="0,0,84.0,12.5" width="84.0" x="12.0" y="62.5"><defs /><text fill="rgb(0,0,0)" font-family="Lucida Console" font-size="10" opacity="1.0" x="0" y="9.375">DiffxNodeMoved</text><rect fill="rgb(30,45,210)" height="12.5" opacity="0.3" width="84.0" x="0" y="0" /></svg><svg height="12.5" viewBox="0,0,120.0,12.5" width="120.0" x="12.0" y="75.0"><defs /><text fill="rgb(0,0,0)" font-family="Lucida Console" font-size="10" opacity="1.0" x="0" y="9.375">DiffxParentNodeMoved</text><rect fill="rgb(85,153,255)" height="12.5" opacity="0.3" width="120.0" x="0" y="0" /></svg><svg height="12.5" viewBox="0,0,102.0,12.5" width="102.0" x="12.0" y="87.5"><defs /><text fill="rgb(0,0,0)" font-family="Lucida Console" font-size="10" opacity="1.0" x="0" y="9.375">DiffxNodeTagConsi</text><rect fill="rgb(0,160,112)" height="12.5" opacity="0.3" width="102.0" x="0" y="0" /></svg><svg height="12.5" viewBox="0,0,156.0,12.5" width="156.0" x="12.0" y="100.0"><defs /><text fill="rgb(0,0,0)" font-family="Lucida Console" font-size="10" opacity="1.0" x="0" y="9.375">DiffxNodeTagAttriNameConsi</text><rect fill="rgb(0,208,224)" height="12.5" opacity="0.3" width="156.0" x="0" y="0" /></svg><svg height="12.5" viewBox="0,0,186.0,12.5" width="186.0" x="12.0" y="112.5"><defs /><text fill="rgb(0,0,0)" font-family="Lucida Console" font-size="10" opacity="1.0" x="0" y="9.375">DiffxNodeTagAttriNameValueConsi</text><rect fill="rgb(0,160,240)" height="12.5" opacity="0.3" width="186.0" x="0" y="0" /></svg><svg height="12.5" viewBox="0,0,168.0,12.5" width="168.0" x="12.0" y="125.0"><defs /><text fill="rgb(0,0,0)" font-family="Lucida Console" font-size="10" opacity="1.0" x="0" y="9.375">DiffxNodeTextAttriValueConsi</text><rect fill="rgb(0,112,160)" height="12.5" opacity="0.3" width="168.0" x="0" y="0" /></svg></svg></svg><polyline fill="rgb(85,153,255)" opacity="0.3" points="24.0,163.0 444.0,163.0 532.8,150.0 598.8,150.0 598.8,163.0 532.8,163.0 444.0,176.0 24.0,176.0 24.0,163.0" stroke="rgb(85,153,255)" stroke-width="0.5" /><polyline fill="rgb(85,153,255)" opacity="0.3" points="24.0,293.0 444.0,293.0 532.8,254.0 598.8,254.0 598.8,267.0 532.8,267.0 444.0,306.0 24.0,306.0 24.0,293.0" stroke="rgb(85,153,255)" stroke-width="0.5" /><polyline fill="rgb(85,153,255)" opacity="0.3" points="24.0,423.0 444.0,423.0 532.8,358.0 598.8,358.0 598.8,371.0 532.8,371.0 444.0,436.0 24.0,436.0 24.0,423.0" stroke="rgb(85,153,255)" stroke-width="0.5" /><polyline fill="rgb(85,153,255)" opacity="0.3" points="24.0,553.0 444.0,553.0 532.8,462.0 598.8,462.0 598.8,475.0 532.8,475.0 444.0,566.0 24.0,566.0 24.0,553.0" stroke="rgb(85,153,255)" stroke-width="0.5" /><polyline fill="rgb(85,153,255)" opacity="0.3" points="36.0,228.0 444.0,228.0 532.8,189.0 610.8,189.0 610.8,202.0 532.8,202.0 444.0,241.0 36.0,241.0 36.0,228.0" stroke="rgb(85,153,255)" stroke-width="0.5" /><polyline fill="rgb(85,153,255)" opacity="0.3" points="36.0,358.0 444.0,358.0 532.8,293.0 610.8,293.0 610.8,306.0 532.8,306.0 444.0,371.0 36.0,371.0 36.0,358.0" stroke="rgb(85,153,255)" stroke-width="0.5" /><polyline fill="rgb(85,153,255)" opacity="0.3" points="36.0,488.0 444.0,488.0 532.8,397.0 610.8,397.0 610.8,410.0 532.8,410.0 444.0,501.0 36.0,501.0 36.0,488.0" stroke="rgb(85,153,255)" stroke-width="0.5" /><polyline fill="rgb(85,153,255)" opacity="0.3" points="36.0,618.0 444.0,618.0 532.8,501.0 610.8,501.0 610.8,514.0 532.8,514.0 444.0,631.0 36.0,631.0 36.0,618.0" stroke="rgb(85,153,255)" stroke-width="0.5" /><polyline fill="rgb(85,153,255)" opacity="0.3" points="24.0,72.0 444.0,72.0 532.8,59.0 598.8,59.0 598.8,72.0 532.8,72.0 444.0,85.0 24.0,85.0 24.0,72.0" stroke="rgb(85,153,255)" stroke-width="0.5" /><polyline fill="rgb(126,98,161)" opacity="0.3" points="24.0,98.0 444.0,98.0 532.8,85.0 586.8,85.0 586.8,98.0 532.8,98.0 444.0,111.0 24.0,111.0 24.0,98.0" stroke="rgb(126,98,161)" stroke-width="0.5" /><polyline fill="rgb(126,98,161)" opacity="0.3" points="24.0,46.0 444.0,46.0 532.8,46.0 706.8,46.0 706.8,59.0 532.8,59.0 444.0,59.0 24.0,59.0 24.0,46.0" stroke="rgb(126,98,161)" stroke-width="0.5" /><polyline fill="rgb(126,98,161)" opacity="0.3" points="36.0,215.0 444.0,215.0 532.8,176.0 640.8,176.0 640.8,189.0 532.8,189.0 444.0,228.0 36.0,228.0 36.0,215.0" stroke="rgb(126,98,161)" stroke-width="0.5" /><polyline fill="rgb(126,98,161)" opacity="0.3" points="36.0,176.0 444.0,176.0 532.8,163.0 616.8,163.0 616.8,176.0 532.8,176.0 444.0,189.0 36.0,189.0 36.0,176.0" stroke="rgb(126,98,161)" stroke-width="0.5" /><polyline fill="rgb(126,98,161)" opacity="0.3" points="36.0,345.0 444.0,345.0 532.8,280.0 640.8,280.0 640.8,293.0 532.8,293.0 444.0,358.0 36.0,358.0 36.0,345.0" stroke="rgb(126,98,161)" stroke-width="0.5" /><polyline fill="rgb(126,98,161)" opacity="0.3" points="36.0,306.0 444.0,306.0 532.8,267.0 616.8,267.0 616.8,280.0 532.8,280.0 444.0,319.0 36.0,319.0 36.0,306.0" stroke="rgb(126,98,161)" stroke-width="0.5" /><polyline fill="rgb(126,98,161)" opacity="0.3" points="36.0,475.0 444.0,475.0 532.8,384.0 640.8,384.0 640.8,397.0 532.8,397.0 444.0,488.0 36.0,488.0 36.0,475.0" stroke="rgb(126,98,161)" stroke-width="0.5" /><polyline fill="rgb(126,98,161)" opacity="0.3" points="36.0,436.0 444.0,436.0 532.8,371.0 616.8,371.0 616.8,384.0 532.8,384.0 444.0,449.0 36.0,449.0 36.0,436.0" stroke="rgb(126,98,161)" stroke-width="0.5" /><polyline fill="rgb(126,98,161)" opacity="0.3" points="36.0,605.0 444.0,605.0 532.8,488.0 640.8,488.0 640.8,501.0 532.8,501.0 444.0,618.0 36.0,618.0 36.0,605.0" stroke="rgb(126,98,161)" stroke-width="0.5" /><polyline fill="rgb(126,98,161)" opacity="0.3" points="36.0,566.0 444.0,566.0 532.8,475.0 616.8,475.0 616.8,488.0 532.8,488.0 444.0,579.0 36.0,579.0 36.0,566.0" stroke="rgb(126,98,161)" stroke-width="0.5" /><polyline fill="rgb(126,98,161)" opacity="0.3" points="24.0,150.0 444.0,150.0 532.8,137.0 628.8,137.0 628.8,150.0 532.8,150.0 444.0,163.0 24.0,163.0 24.0,150.0" stroke="rgb(126,98,161)" stroke-width="0.5" /><polyline fill="rgb(126,98,161)" opacity="0.3" points="36.0,137.0 444.0,137.0 532.8,124.0 616.8,124.0 616.8,137.0 532.8,137.0 444.0,150.0 36.0,150.0 36.0,137.0" stroke="rgb(126,98,161)" stroke-width="0.5" /><polyline fill="rgb(126,98,161)" opacity="0.3" points="36.0,124.0 444.0,124.0 532.8,111.0 634.8,111.0 634.8,124.0 532.8,124.0 444.0,137.0 36.0,137.0 36.0,124.0" stroke="rgb(126,98,161)" stroke-width="0.5" /><polyline fill="rgb(126,98,161)" opacity="0.3" points="36.0,111.0 444.0,111.0 532.8,98.0 628.8,98.0 628.8,111.0 532.8,111.0 444.0,124.0 36.0,124.0 36.0,111.0" stroke="rgb(126,98,161)" stroke-width="0.5" /><polyline fill="rgb(0,160,240)" opacity="0.3" points="48.0,267.0 444.0,267.0 532.8,228.0 634.8,228.0 634.8,241.0 532.8,241.0 444.0,280.0 48.0,280.0 48.0,267.0" stroke="rgb(0,160,240)" stroke-width="0.5" /><polyline fill="rgb(0,160,240)" opacity="0.3" points="48.0,241.0 444.0,241.0 532.8,202.0 634.8,202.0 634.8,215.0 532.8,215.0 444.0,254.0 48.0,254.0 48.0,241.0" stroke="rgb(0,160,240)" stroke-width="0.5" /><polyline fill="rgb(0,160,240)" opacity="0.3" points="48.0,280.0 444.0,280.0 532.8,241.0 628.8,241.0 628.8,254.0 532.8,254.0 444.0,293.0 48.0,293.0 48.0,280.0" stroke="rgb(0,160,240)" stroke-width="0.5" /><polyline fill="rgb(0,160,240)" opacity="0.3" points="48.0,254.0 444.0,254.0 532.8,215.0 628.8,215.0 628.8,228.0 532.8,228.0 444.0,267.0 48.0,267.0 48.0,254.0" stroke="rgb(0,160,240)" stroke-width="0.5" /><polyline fill="rgb(0,160,240)" opacity="0.3" points="48.0,397.0 444.0,397.0 532.8,332.0 634.8,332.0 634.8,345.0 532.8,345.0 444.0,410.0 48.0,410.0 48.0,397.0" stroke="rgb(0,160,240)" stroke-width="0.5" /><polyline fill="rgb(0,160,240)" opacity="0.3" points="48.0,371.0 444.0,371.0 532.8,306.0 634.8,306.0 634.8,319.0 532.8,319.0 444.0,384.0 48.0,384.0 48.0,371.0" stroke="rgb(0,160,240)" stroke-width="0.5" /><polyline fill="rgb(0,160,240)" opacity="0.3" points="48.0,410.0 444.0,410.0 532.8,345.0 628.8,345.0 628.8,358.0 532.8,358.0 444.0,423.0 48.0,423.0 48.0,410.0" stroke="rgb(0,160,240)" stroke-width="0.5" /><polyline fill="rgb(0,160,240)" opacity="0.3" points="48.0,384.0 444.0,384.0 532.8,319.0 628.8,319.0 628.8,332.0 532.8,332.0 444.0,397.0 48.0,397.0 48.0,384.0" stroke="rgb(0,160,240)" stroke-width="0.5" /><polyline fill="rgb(0,160,240)" opacity="0.3" points="48.0,527.0 444.0,527.0 532.8,436.0 634.8,436.0 634.8,449.0 532.8,449.0 444.0,540.0 48.0,540.0 48.0,527.0" stroke="rgb(0,160,240)" stroke-width="0.5" /><polyline fill="rgb(0,160,240)" opacity="0.3" points="48.0,501.0 444.0,501.0 532.8,410.0 628.8,410.0 628.8,423.0 532.8,423.0 444.0,514.0 48.0,514.0 48.0,501.0" stroke="rgb(0,160,240)" stroke-width="0.5" /><polyline fill="rgb(0,160,240)" opacity="0.3" points="48.0,540.0 444.0,540.0 532.8,449.0 628.8,449.0 628.8,462.0 532.8,462.0 444.0,553.0 48.0,553.0 48.0,540.0" stroke="rgb(0,160,240)" stroke-width="0.5" /><polyline fill="rgb(0,160,240)" opacity="0.3" points="48.0,514.0 444.0,514.0 532.8,423.0 628.8,423.0 628.8,436.0 532.8,436.0 444.0,527.0 48.0,527.0 48.0,514.0" stroke="rgb(0,160,240)" stroke-width="0.5" /><polyline fill="rgb(0,160,240)" opacity="0.3" points="48.0,657.0 444.0,657.0 532.8,540.0 628.8,540.0 628.8,553.0 532.8,553.0 444.0,670.0 48.0,670.0 48.0,657.0" stroke="rgb(0,160,240)" stroke-width="0.5" /><polyline fill="rgb(0,160,240)" opacity="0.3" points="48.0,631.0 444.0,631.0 532.8,514.0 622.8,514.0 622.8,527.0 532.8,527.0 444.0,644.0 48.0,644.0 48.0,631.0" stroke="rgb(0,160,240)" stroke-width="0.5" /><polyline fill="rgb(0,160,240)" opacity="0.3" points="48.0,670.0 444.0,670.0 532.8,553.0 628.8,553.0 628.8,566.0 532.8,566.0 444.0,683.0 48.0,683.0 48.0,670.0" stroke="rgb(0,160,240)" stroke-width="0.5" /><polyline fill="rgb(0,160,240)" opacity="0.3" points="48.0,644.0 444.0,644.0 532.8,527.0 628.8,527.0 628.8,540.0 532.8,540.0 444.0,657.0 48.0,657.0 48.0,644.0" stroke="rgb(0,160,240)" stroke-width="0.5" /><polyline fill="rgb(0,160,240)" opacity="0.3" points="36.0,85.0 444.0,85.0 532.8,72.0 664.8,72.0 664.8,85.0 532.8,85.0 444.0,98.0 36.0,98.0 36.0,85.0" stroke="rgb(0,160,240)" stroke-width="0.5" /><polyline fill="rgb(255,0,255)" opacity="0.3" points="36.0,189.0 138.0,189.0 138.0,202.0 36.0,202.0 36.0,189.0" stroke="rgb(255,0,255)" stroke-width="1" /><polyline fill="rgb(255,0,255)" opacity="0.3" points="36.0,202.0 108.0,202.0 108.0,215.0 36.0,215.0 36.0,202.0" stroke="rgb(255,0,255)" stroke-width="1" /><polyline fill="rgb(255,0,255)" opacity="0.3" points="36.0,319.0 138.0,319.0 138.0,332.0 36.0,332.0 36.0,319.0" stroke="rgb(255,0,255)" stroke-width="1" /><polyline fill="rgb(255,0,255)" opacity="0.3" points="36.0,332.0 108.0,332.0 108.0,345.0 36.0,345.0 36.0,332.0" stroke="rgb(255,0,255)" stroke-width="1" /><polyline fill="rgb(255,0,255)" opacity="0.3" points="36.0,449.0 138.0,449.0 138.0,462.0 36.0,462.0 36.0,449.0" stroke="rgb(255,0,255)" stroke-width="1" /><polyline fill="rgb(255,0,255)" opacity="0.3" points="36.0,462.0 108.0,462.0 108.0,475.0 36.0,475.0 36.0,462.0" stroke="rgb(255,0,255)" stroke-width="1" /><polyline fill="rgb(255,0,255)" opacity="0.3" points="36.0,579.0 138.0,579.0 138.0,592.0 36.0,592.0 36.0,579.0" stroke="rgb(255,0,255)" stroke-width="1" /><polyline fill="rgb(255,0,255)" opacity="0.3" points="36.0,592.0 108.0,592.0 108.0,605.0 36.0,605.0 36.0,592.0" stroke="rgb(255,0,255)" stroke-width="1" /></svg>