<?xml version="1.0" encoding="utf-8" ?>
<svg baseProfile="full" height="1073.0" version="1.1" viewBox="0,0,918.0,1073.0" width="918.0" xmlns="http://www.w3.org/2000/svg" xmlns:ev="http://www.w3.org/2001/xml-events" xmlns:xlink="http://www.w3.org/1999/xlink"><defs /><svg baseProfile="full" height="100%" version="1.1" width="100%" x="0" xmlns="http://www.w3.org/2000/svg" xmlns:ev="http://www.w3.org/2001/xml-events" xmlns:xlink="http://www.w3.org/1999/xlink" y="0"><defs /><svg font-family="Lucida Console" font-size="10" height="13.0" width="66.0" x="12.0" y="20.0"><defs /><text x="0" y="10.0"><tspan fill="rgb(0,0,0)">annotation:</tspan><tspan fill="rgb(0,128,255)" /></text></svg><svg font-family="Lucida Console" font-size="10" height="13.0" width="114.0" x="24.0" y="33.0"><defs /><text x="0" y="10.0"><tspan fill="rgb(0,0,0)">folder:</tspan><tspan fill="rgb(0,128,255)">VOC2007_</tspan><tspan fill="rgb(0,0,0)">t</tspan><tspan fill="rgb(0,128,255)">est</tspan></text></svg><svg font-family="Lucida Console" font-size="10" height="13.0" width="150.0" x="24.0" y="46.0"><defs /><text x="0" y="10.0"><tspan fill="rgb(0,0,0)">filename: 5280a7fe9_0.png</tspan></text></svg><svg font-family="Lucida Console" font-size="10" height="13.0" width="402.0" x="24.0" y="59.0"><defs /><text x="0" y="10.0"><tspan fill="rgb(0,0,0)">path:</tspan><tspan fill="rgb(0,0,0)"> D:\Git\rfcx</tspan><tspan fill="rgb(0,0,0)">-species-audio-detection\train_img\5280a7fe9_0.png</tspan></text></svg><svg font-family="Lucida Console" font-size="10" height="13.0" width="42.0" x="24.0" y="72.0"><defs /><text x="0" y="10.0"><tspan fill="rgb(0,0,0)">source:</tspan><tspan fill="rgb(0,128,255)" /></text></svg><svg font-family="Lucida Console" font-size="10" height="13.0" width="300.0" x="36.0" y="85.0"><defs /><text x="0" y="10.0"><tspan fill="rgb(0,0,0)">database:</tspan><tspan fill="rgb(0,128,255)">Kaggle Rai</tspan><tspan fill="rgb(0,0,0)">n</tspan><tspan fill="rgb(0,128,255)">forest Co</tspan><tspan fill="rgb(0,0,0)">n</tspan><tspan fill="rgb(0,128,255)">necti</tspan><tspan fill="rgb(0,0,0)">o</tspan><tspan fill="rgb(0,0,0)">n</tspan><tspan fill="rgb(0,128,255)">Species Audio</tspan></text></svg><svg font-family="Lucida Console" font-size="10" height="13.0" width="30.0" x="24.0" y="98.0"><defs /><text x="0" y="10.0"><tspan fill="rgb(0,0,0)">size:</tspan><tspan fill="rgb(0,128,255)" /></text></svg><svg font-family="Lucida Console" font-size="10" height="13.0" width="60.0" x="36.0" y="111.0"><defs /><text x="0" y="10.0"><tspan fill="rgb(0,0,0)">width: 387</tspan></text></svg><svg font-family="Lucida Console" font-size="10" height="13.0" width="66.0" x="36.0" y="124.0"><defs /><text x="0" y="10.0"><tspan fill="rgb(0,0,0)">height: 154</tspan></text></svg><svg font-family="Lucida Console" font-size="10" height="13.0" width="48.0" x="36.0" y="137.0"><defs /><text x="0" y="10.0"><tspan fill="rgb(0,0,0)">depth: 3</tspan></text></svg><svg font-family="Lucida Console" font-size="10" height="13.0" width="72.0" x="24.0" y="150.0"><defs /><text x="0" y="10.0"><tspan fill="rgb(0,0,0)">segmented: 0</tspan></text></svg><svg font-family="Lucida Console" font-size="10" height="13.0" width="42.0" x="24.0" y="163.0"><defs /><text x="0" y="10.0"><tspan fill="rgb(0,0,0)">object:</tspan><tspan fill="rgb(0,128,255)" /></text></svg><svg font-family="Lucida Console" font-size="10" height="13.0" width="42.0" x="36.0" y="176.0"><defs /><text x="0" y="10.0"><tspan fill="rgb(0,0,0)">name: 4</tspan></text></svg><svg font-family="Lucida Console" font-size="10" height="13.0" width="102.0" x="36.0" y="189.0"><defs /><text x="0" y="10.0"><tspan fill="rgb(0,0,0)">pose: Unspecified</tspan></text></svg><svg font-family="Lucida Console" font-size="10" height="13.0" width="72.0" x="36.0" y="202.0"><defs /><text x="0" y="10.0"><tspan fill="rgb(0,0,0)">truncated: 0</tspan></text></svg><svg font-family="Lucida Console" font-size="10" height="13.0" width="72.0" x="36.0" y="215.0"><defs /><text x="0" y="10.0"><tspan fill="rgb(0,0,0)">difficult: 0</tspan></text></svg><svg font-family="Lucida Console" font-size="10" height="13.0" width="42.0" x="36.0" y="228.0"><defs /><text x="0" y="10.0"><tspan fill="rgb(0,0,0)">bndbox:</tspan><tspan fill="rgb(0,128,255)" /></text></svg><svg font-family="Lucida Console" font-size="10" height="13.0" width="66.0" x="48.0" y="241.0"><defs /><text x="0" y="10.0"><tspan fill="rgb(0,0,0)">xmin: 236</tspan><tspan fill="rgb(0,128,255)">.0</tspan></text></svg><svg font-family="Lucida Console" font-size="10" height="13.0" width="60.0" x="48.0" y="254.0"><defs /><text x="0" y="10.0"><tspan fill="rgb(0,0,0)">ymin: 65</tspan><tspan fill="rgb(0,128,255)">.0</tspan></text></svg><svg font-family="Lucida Console" font-size="10" height="13.0" width="66.0" x="48.0" y="267.0"><defs /><text x="0" y="10.0"><tspan fill="rgb(0,0,0)">xmax: 265</tspan><tspan fill="rgb(0,128,255)">.0</tspan></text></svg><svg font-family="Lucida Console" font-size="10" height="13.0" width="66.0" x="48.0" y="280.0"><defs /><text x="0" y="10.0"><tspan fill="rgb(0,0,0)">ymax: 102</tspan><tspan fill="rgb(0,128,255)">.0</tspan></text></svg><svg font-family="Lucida Console" font-size="10" height="13.0" width="42.0" x="24.0" y="293.0"><defs /><text x="0" y="10.0"><tspan fill="rgb(0,0,0)">object:</tspan><tspan fill="rgb(0,128,255)" /></text></svg><svg font-family="Lucida Console" font-size="10" height="13.0" width="42.0" x="36.0" y="306.0"><defs /><text x="0" y="10.0"><tspan fill="rgb(0,0,0)">name: 4</tspan></text></svg><svg font-family="Lucida Console" font-size="10" height="13.0" width="102.0" x="36.0" y="319.0"><defs /><text x="0" y="10.0"><tspan fill="rgb(0,0,0)">pose: Unspecified</tspan></text></svg><svg font-family="Lucida Console" font-size="10" height="13.0" width="72.0" x="36.0" y="332.0"><defs /><text x="0" y="10.0"><tspan fill="rgb(0,0,0)">truncated: 1</tspan></text></svg><svg font-family="Lucida Console" font-size="10" height="13.0" width="72.0" x="36.0" y="345.0"><defs /><text x="0" y="10.0"><tspan fill="rgb(0,0,0)">difficult: 0</tspan></text></svg><svg font-family="Lucida Console" font-size="10" height="13.0" width="42.0" x="36.0" y="358.0"><defs /><text x="0" y="10.0"><tspan fill="rgb(0,0,0)">bndbox:</tspan><tspan fill="rgb(0,128,255)" /></text></svg><svg font-family="Lucida Console" font-size="10" height="13.0" width="54.0" x="48.0" y="371.0"><defs /><text x="0" y="10.0"><tspan fill="rgb(0,0,0)">xmin: 1</tspan><tspan fill="rgb(0,128,255)">.0</tspan></text></svg><svg font-family="Lucida Console" font-size="10" height="13.0" width="60.0" x="48.0" y="384.0"><defs /><text x="0" y="10.0"><tspan fill="rgb(0,0,0)">ymin: 69</tspan><tspan fill="rgb(0,128,255)">.0</tspan></text></svg><svg font-family="Lucida Console" font-size="10" height="13.0" width="60.0" x="48.0" y="397.0"><defs /><text x="0" y="10.0"><tspan fill="rgb(0,0,0)">xmax: 56</tspan><tspan fill="rgb(0,128,255)">.0</tspan></text></svg><svg font-family="Lucida Console" font-size="10" height="13.0" width="66.0" x="48.0" y="410.0"><defs /><text x="0" y="10.0"><tspan fill="rgb(0,0,0)">ymax: 104</tspan><tspan fill="rgb(0,128,255)">.0</tspan></text></svg><svg font-family="Lucida Console" font-size="10" height="13.0" width="42.0" x="24.0" y="423.0"><defs /><text x="0" y="10.0"><tspan fill="rgb(0,0,0)">object:</tspan><tspan fill="rgb(0,128,255)" /></text></svg><svg font-family="Lucida Console" font-size="10" height="13.0" width="42.0" x="36.0" y="436.0"><defs /><text x="0" y="10.0"><tspan fill="rgb(0,0,0)">name: 4</tspan></text></svg><svg font-family="Lucida Console" font-size="10" height="13.0" width="102.0" x="36.0" y="449.0"><defs /><text x="0" y="10.0"><tspan fill="rgb(0,0,0)">pose: Unspecified</tspan></text></svg><svg font-family="Lucida Console" font-size="10" height="13.0" width="72.0" x="36.0" y="462.0"><defs /><text x="0" y="10.0"><tspan fill="rgb(0,0,0)">truncated: 0</tspan></text></svg><svg font-family="Lucida Console" font-size="10" height="13.0" width="72.0" x="36.0" y="475.0"><defs /><text x="0" y="10.0"><tspan fill="rgb(0,0,0)">difficult: 0</tspan></text></svg><svg font-family="Lucida Console" font-size="10" height="13.0" width="42.0" x="36.0" y="488.0"><defs /><text x="0" y="10.0"><tspan fill="rgb(0,0,0)">bndbox:</tspan><tspan fill="rgb(0,128,255)" /></text></svg><svg font-family="Lucida Console" font-size="10" height="13.0" width="60.0" x="48.0" y="501.0"><defs /><text x="0" y="10.0"><tspan fill="rgb(0,0,0)">xmin: 60</tspan><tspan fill="rgb(0,128,255)">.0</tspan></text></svg><svg font-family="Lucida Console" font-size="10" height="13.0" width="60.0" x="48.0" y="514.0"><defs /><text x="0" y="10.0"><tspan fill="rgb(0,0,0)">ymin: 68</tspan><tspan fill="rgb(0,128,255)">.0</tspan></text></svg><svg font-family="Lucida Console" font-size="10" height="13.0" width="66.0" x="48.0" y="527.0"><defs /><text x="0" y="10.0"><tspan fill="rgb(0,0,0)">xmax: 121</tspan><tspan fill="rgb(0,128,255)">.0</tspan></text></svg><svg font-family="Lucida Console" font-size="10" height="13.0" width="66.0" x="48.0" y="540.0"><defs /><text x="0" y="10.0"><tspan fill="rgb(0,0,0)">ymax: 106</tspan><tspan fill="rgb(0,128,255)">.0</tspan></text></svg><svg font-family="Lucida Console" font-size="10" height="13.0" width="42.0" x="24.0" y="553.0"><defs /><text x="0" y="10.0"><tspan fill="rgb(0,0,0)">object:</tspan><tspan fill="rgb(0,128,255)" /></text></svg><svg font-family="Lucida Console" font-size="10" height="13.0" width="42.0" x="36.0" y="566.0"><defs /><text x="0" y="10.0"><tspan fill="rgb(0,0,0)">name: 4</tspan></text></svg><svg font-family="Lucida Console" font-size="10" height="13.0" width="102.0" x="36.0" y="579.0"><defs /><text x="0" y="10.0"><tspan fill="rgb(0,0,0)">pose: Unspecified</tspan></text></svg><svg font-family="Lucida Console" font-size="10" height="13.0" width="72.0" x="36.0" y="592.0"><defs /><text x="0" y="10.0"><tspan fill="rgb(0,0,0)">truncated: 0</tspan></text></svg><svg font-family="Lucida Console" font-size="10" height="13.0" width="72.0" x="36.0" y="605.0"><defs /><text x="0" y="10.0"><tspan fill="rgb(0,0,0)">difficult: 0</tspan></text></svg><svg font-family="Lucida Console" font-size="10" height="13.0" width="42.0" x="36.0" y="618.0"><defs /><text x="0" y="10.0"><tspan fill="rgb(0,0,0)">bndbox:</tspan><tspan fill="rgb(0,128,255)" /></text></svg><svg font-family="Lucida Console" font-size="10" height="13.0" width="66.0" x="48.0" y="631.0"><defs /><text x="0" y="10.0"><tspan fill="rgb(0,0,0)">xmin: 127</tspan><tspan fill="rgb(0,128,255)">.0</tspan></text></svg><svg font-family="Lucida Console" font-size="10" height="13.0" width="60.0" x="48.0" y="644.0"><defs /><text x="0" y="10.0"><tspan fill="rgb(0,0,0)">ymin: 68</tspan><tspan fill="rgb(0,128,255)">.0</tspan></text></svg><svg font-family="Lucida Console" font-size="10" height="13.0" width="66.0" x="48.0" y="657.0"><defs /><text x="0" y="10.0"><tspan fill="rgb(0,0,0)">xmax: 204</tspan><tspan fill="rgb(0,128,255)">.0</tspan></text></svg><svg font-family="Lucida Console" font-size="10" height="13.0" width="66.0" x="48.0" y="670.0"><defs /><text x="0" y="10.0"><tspan fill="rgb(0,0,0)">ymax: 105</tspan><tspan fill="rgb(0,128,255)">.0</tspan></text></svg><svg font-family="Lucida Console" font-size="10" height="13.0" width="42.0" x="24.0" y="683.0"><defs /><text x="0" y="10.0"><tspan fill="rgb(0,0,0)">object:</tspan><tspan fill="rgb(0,128,255)" /></text></svg><svg font-family="Lucida Console" font-size="10" height="13.0" width="42.0" x="36.0" y="696.0"><defs /><text x="0" y="10.0"><tspan fill="rgb(0,0,0)">name: 4</tspan></text></svg><svg font-family="Lucida Console" font-size="10" height="13.0" width="102.0" x="36.0" y="709.0"><defs /><text x="0" y="10.0"><tspan fill="rgb(0,0,0)">pose: Unspecified</tspan></text></svg><svg font-family="Lucida Console" font-size="10" height="13.0" width="72.0" x="36.0" y="722.0"><defs /><text x="0" y="10.0"><tspan fill="rgb(0,0,0)">truncated: 0</tspan></text></svg><svg font-family="Lucida Console" font-size="10" height="13.0" width="72.0" x="36.0" y="735.0"><defs /><text x="0" y="10.0"><tspan fill="rgb(0,0,0)">difficult: 0</tspan></text></svg><svg font-family="Lucida Console" font-size="10" height="13.0" width="42.0" x="36.0" y="748.0"><defs /><text x="0" y="10.0"><tspan fill="rgb(0,0,0)">bndbox:</tspan><tspan fill="rgb(0,128,255)" /></text></svg><svg font-family="Lucida Console" font-size="10" height="13.0" width="66.0" x="48.0" y="761.0"><defs /><text x="0" y="10.0"><tspan fill="rgb(0,0,0)">xmin: 207</tspan><tspan fill="rgb(0,128,255)">.0</tspan></text></svg><svg font-family="Lucida Console" font-size="10" height="13.0" width="60.0" x="48.0" y="774.0"><defs /><text x="0" y="10.0"><tspan fill="rgb(0,0,0)">ymin: 65</tspan><tspan fill="rgb(0,128,255)">.0</tspan></text></svg><svg font-family="Lucida Console" font-size="10" height="13.0" width="66.0" x="48.0" y="787.0"><defs /><text x="0" y="10.0"><tspan fill="rgb(0,0,0)">xmax: 232</tspan><tspan fill="rgb(0,128,255)">.0</tspan></text></svg><svg font-family="Lucida Console" font-size="10" height="13.0" width="66.0" x="48.0" y="800.0"><defs /><text x="0" y="10.0"><tspan fill="rgb(0,0,0)">ymax: 105</tspan><tspan fill="rgb(0,128,255)">.0</tspan></text></svg><svg font-family="Lucida Console" font-size="10" height="13.0" width="42.0" x="24.0" y="813.0"><defs /><text x="0" y="10.0"><tspan fill="rgb(0,0,0)">object:</tspan><tspan fill="rgb(0,128,255)" /></text></svg><svg font-family="Lucida Console" font-size="10" height="13.0" width="42.0" x="36.0" y="826.0"><defs /><text x="0" y="10.0"><tspan fill="rgb(0,0,0)">name: 4</tspan></text></svg><svg font-family="Lucida Console" font-size="10" height="13.0" width="102.0" x="36.0" y="839.0"><defs /><text x="0" y="10.0"><tspan fill="rgb(0,0,0)">pose: Unspecified</tspan></text></svg><svg font-family="Lucida Console" font-size="10" height="13.0" width="72.0" x="36.0" y="852.0"><defs /><text x="0" y="10.0"><tspan fill="rgb(0,0,0)">truncated: 0</tspan></text></svg><svg font-family="Lucida Console" font-size="10" height="13.0" width="72.0" x="36.0" y="865.0"><defs /><text x="0" y="10.0"><tspan fill="rgb(0,0,0)">difficult: 0</tspan></text></svg><svg font-family="Lucida Console" font-size="10" height="13.0" width="42.0" x="36.0" y="878.0"><defs /><text x="0" y="10.0"><tspan fill="rgb(0,0,0)">bndbox:</tspan><tspan fill="rgb(0,128,255)" /></text></svg><svg font-family="Lucida Console" font-size="10" height="13.0" width="66.0" x="48.0" y="891.0"><defs /><text x="0" y="10.0"><tspan fill="rgb(0,0,0)">xmin: 268</tspan><tspan fill="rgb(0,128,255)">.0</tspan></text></svg><svg font-family="Lucida Console" font-size="10" height="13.0" width="60.0" x="48.0" y="904.0"><defs /><text x="0" y="10.0"><tspan fill="rgb(0,0,0)">ymin: 65</tspan><tspan fill="rgb(0,128,255)">.0</tspan></text></svg><svg font-family="Lucida Console" font-size="10" height="13.0" width="66.0" x="48.0" y="917.0"><defs /><text x="0" y="10.0"><tspan fill="rgb(0,0,0)">xmax: 323</tspan><tspan fill="rgb(0,128,255)">.0</tspan></text></svg><svg font-family="Lucida Console" font-size="10" height="13.0" width="66.0" x="48.0" y="930.0"><defs /><text x="0" y="10.0"><tspan fill="rgb(0,0,0)">ymax: 105</tspan><tspan fill="rgb(0,128,255)">.0</tspan></text></svg><svg font-family="Lucida Console" font-size="10" height="13.0" width="42.0" x="24.0" y="943.0"><defs /><text x="0" y="10.0"><tspan fill="rgb(0,0,0)">object:</tspan><tspan fill="rgb(0,128,255)" /></text></svg><svg font-family="Lucida Console" font-size="10" height="13.0" width="42.0" x="36.0" y="956.0"><defs /><text x="0" y="10.0"><tspan fill="rgb(0,0,0)">name: 4</tspan></text></svg><svg font-family="Lucida Console" font-size="10" height="13.0" width="102.0" x="36.0" y="969.0"><defs /><text x="0" y="10.0"><tspan fill="rgb(0,0,0)">pose: Unspecified</tspan></text></svg><svg font-family="Lucida Console" font-size="10" height="13.0" width="72.0" x="36.0" y="982.0"><defs /><text x="0" y="10.0"><tspan fill="rgb(0,0,0)">truncated: 0</tspan></text></svg><svg font-family="Lucida Console" font-size="10" height="13.0" width="72.0" x="36.0" y="995.0"><defs /><text x="0" y="10.0"><tspan fill="rgb(0,0,0)">difficult: 0</tspan></text></svg><svg font-family="Lucida Console" font-size="10" height="13.0" width="42.0" x="36.0" y="1008.0"><defs /><text x="0" y="10.0"><tspan fill="rgb(0,0,0)">bndbox:</tspan><tspan fill="rgb(0,128,255)" /></text></svg><svg font-family="Lucida Console" font-size="10" height="13.0" width="66.0" x="48.0" y="1021.0"><defs /><text x="0" y="10.0"><tspan fill="rgb(0,0,0)">xmin: 329</tspan><tspan fill="rgb(0,128,255)">.0</tspan></text></svg><svg font-family="Lucida Console" font-size="10" height="13.0" width="60.0" x="48.0" y="1034.0"><defs /><text x="0" y="10.0"><tspan fill="rgb(0,0,0)">ymin: 67</tspan><tspan fill="rgb(0,128,255)">.0</tspan></text></svg><svg font-family="Lucida Console" font-size="10" height="13.0" width="66.0" x="48.0" y="1047.0"><defs /><text x="0" y="10.0"><tspan fill="rgb(0,0,0)">xmax: 386</tspan><tspan fill="rgb(0,128,255)">.0</tspan></text></svg><svg font-family="Lucida Console" font-size="10" height="13.0" width="66.0" x="48.0" y="1060.0"><defs /><text x="0" y="10.0"><tspan fill="rgb(0,0,0)">ymax: 105</tspan><tspan fill="rgb(0,128,255)">.0</tspan></text></svg></svg><svg baseProfile="full" height="100%" version="1.1" width="100%" x="511.2" xmlns="http://www.w3.org/2000/svg" xmlns:ev="http://www.w3.org/2001/xml-events" xmlns:xlink="http://www.w3.org/1999/xlink" y="0"><defs /><svg font-family="Lucida Console" font-size="10" height="13.0" width="66.0" x="12.0" y="20.0"><defs /><text x="0" y="10.0"><tspan fill="rgb(0,0,0)">annotation:</tspan><tspan fill="rgb(0,128,255)" /></text></svg><svg font-family="Lucida Console" font-size="10" height="13.0" width="96.0" x="24.0" y="33.0"><defs /><text x="0" y="10.0"><tspan fill="rgb(0,0,0)">folder:</tspan><tspan fill="rgb(0,128,255)">train</tspan><tspan fill="rgb(0,0,0)">_</tspan><tspan fill="rgb(0,128,255)">img</tspan></text></svg><svg font-family="Lucida Console" font-size="10" height="13.0" width="150.0" x="24.0" y="46.0"><defs /><text x="0" y="10.0"><tspan fill="rgb(0,0,0)">filename: 5280a7fe9_0.png</tspan></text></svg><svg font-family="Lucida Console" font-size="10" height="13.0" width="42.0" x="24.0" y="59.0"><defs /><text x="0" y="10.0"><tspan fill="rgb(0,0,0)">source:</tspan><tspan fill="rgb(0,128,255)" /></text></svg><svg font-family="Lucida Console" font-size="10" height="13.0" width="96.0" x="36.0" y="72.0"><defs /><text x="0" y="10.0"><tspan fill="rgb(0,0,0)">database:</tspan><tspan fill="rgb(0,128,255)">U</tspan><tspan fill="rgb(0,0,0)">n</tspan><tspan fill="rgb(0,128,255)">kn</tspan><tspan fill="rgb(0,0,0)">o</tspan><tspan fill="rgb(0,128,255)">w</tspan><tspan fill="rgb(0,0,0)">n</tspan></text></svg><svg font-family="Lucida Console" font-size="10" height="13.0" width="30.0" x="24.0" y="85.0"><defs /><text x="0" y="10.0"><tspan fill="rgb(0,0,0)">size:</tspan><tspan fill="rgb(0,128,255)" /></text></svg><svg font-family="Lucida Console" font-size="10" height="13.0" width="60.0" x="36.0" y="98.0"><defs /><text x="0" y="10.0"><tspan fill="rgb(0,0,0)">width: 387</tspan></text></svg><svg font-family="Lucida Console" font-size="10" height="13.0" width="66.0" x="36.0" y="111.0"><defs /><text x="0" y="10.0"><tspan fill="rgb(0,0,0)">height: 154</tspan></text></svg><svg font-family="Lucida Console" font-size="10" height="13.0" width="48.0" x="36.0" y="124.0"><defs /><text x="0" y="10.0"><tspan fill="rgb(0,0,0)">depth: 3</tspan></text></svg><svg font-family="Lucida Console" font-size="10" height="13.0" width="72.0" x="24.0" y="137.0"><defs /><text x="0" y="10.0"><tspan fill="rgb(0,0,0)">segmented: 0</tspan></text></svg><svg font-family="Lucida Console" font-size="10" height="13.0" width="42.0" x="24.0" y="150.0"><defs /><text x="0" y="10.0"><tspan fill="rgb(0,0,0)">object:</tspan><tspan fill="rgb(0,128,255)" /></text></svg><svg font-family="Lucida Console" font-size="10" height="13.0" width="42.0" x="36.0" y="163.0"><defs /><text x="0" y="10.0"><tspan fill="rgb(0,0,0)">name: 4</tspan></text></svg><svg font-family="Lucida Console" font-size="10" height="13.0" width="72.0" x="36.0" y="176.0"><defs /><text x="0" y="10.0"><tspan fill="rgb(0,0,0)">difficult: 0</tspan></text></svg><svg font-family="Lucida Console" font-size="10" height="13.0" width="42.0" x="36.0" y="189.0"><defs /><text x="0" y="10.0"><tspan fill="rgb(0,0,0)">bndbox:</tspan><tspan fill="rgb(0,128,255)" /></text></svg><svg font-family="Lucida Console" font-size="10" height="13.0" width="54.0" x="48.0" y="202.0"><defs /><text x="0" y="10.0"><tspan fill="rgb(0,0,0)">xmin: 236</tspan></text></svg><svg font-family="Lucida Console" font-size="10" height="13.0" width="48.0" x="48.0" y="215.0"><defs /><text x="0" y="10.0"><tspan fill="rgb(0,0,0)">ymin: 65</tspan></text></svg><svg font-family="Lucida Console" font-size="10" height="13.0" width="54.0" x="48.0" y="228.0"><defs /><text x="0" y="10.0"><tspan fill="rgb(0,0,0)">xmax: 265</tspan></text></svg><svg font-family="Lucida Console" font-size="10" height="13.0" width="54.0" x="48.0" y="241.0"><defs /><text x="0" y="10.0"><tspan fill="rgb(0,0,0)">ymax: 102</tspan></text></svg><svg font-family="Lucida Console" font-size="10" height="13.0" width="42.0" x="24.0" y="254.0"><defs /><text x="0" y="10.0"><tspan fill="rgb(0,0,0)">object:</tspan><tspan fill="rgb(0,128,255)" /></text></svg><svg font-family="Lucida Console" font-size="10" height="13.0" width="42.0" x="36.0" y="267.0"><defs /><text x="0" y="10.0"><tspan fill="rgb(0,0,0)">name: 4</tspan></text></svg><svg font-family="Lucida Console" font-size="10" height="13.0" width="72.0" x="36.0" y="280.0"><defs /><text x="0" y="10.0"><tspan fill="rgb(0,0,0)">difficult: 0</tspan></text></svg><svg font-family="Lucida Console" font-size="10" height="13.0" width="42.0" x="36.0" y="293.0"><defs /><text x="0" y="10.0"><tspan fill="rgb(0,0,0)">bndbox:</tspan><tspan fill="rgb(0,128,255)" /></text></svg><svg font-family="Lucida Console" font-size="10" height="13.0" width="42.0" x="48.0" y="306.0"><defs /><text x="0" y="10.0"><tspan fill="rgb(0,0,0)">xmin: 1</tspan></text></svg><svg font-family="Lucida Console" font-size="10" height="13.0" width="48.0" x="48.0" y="319.0"><defs /><text x="0" y="10.0"><tspan fill="rgb(0,0,0)">ymin: 69</tspan></text></svg><svg font-family="Lucida Console" font-size="10" height="13.0" width="48.0" x="48.0" y="332.0"><defs /><text x="0" y="10.0"><tspan fill="rgb(0,0,0)">xmax: 56</tspan></text></svg><svg font-family="Lucida Console" font-size="10" height="13.0" width="54.0" x="48.0" y="345.0"><defs /><text x="0" y="10.0"><tspan fill="rgb(0,0,0)">ymax: 104</tspan></text></svg><svg font-family="Lucida Console" font-size="10" height="13.0" width="42.0" x="24.0" y="358.0"><defs /><text x="0" y="10.0"><tspan fill="rgb(0,0,0)">object:</tspan><tspan fill="rgb(0,128,255)" /></text></svg><svg font-family="Lucida Console" font-size="10" height="13.0" width="42.0" x="36.0" y="371.0"><defs /><text x="0" y="10.0"><tspan fill="rgb(0,0,0)">name: 4</tspan></text></svg><svg font-family="Lucida Console" font-size="10" height="13.0" width="72.0" x="36.0" y="384.0"><defs /><text x="0" y="10.0"><tspan fill="rgb(0,0,0)">difficult: 0</tspan></text></svg><svg font-family="Lucida Console" font-size="10" height="13.0" width="42.0" x="36.0" y="397.0"><defs /><text x="0" y="10.0"><tspan fill="rgb(0,0,0)">bndbox:</tspan><tspan fill="rgb(0,128,255)" /></text></svg><svg font-family="Lucida Console" font-size="10" height="13.0" width="48.0" x="48.0" y="410.0"><defs /><text x="0" y="10.0"><tspan fill="rgb(0,0,0)">xmin: 60</tspan></text></svg><svg font-family="Lucida Console" font-size="10" height="13.0" width="48.0" x="48.0" y="423.0"><defs /><text x="0" y="10.0"><tspan fill="rgb(0,0,0)">ymin: 68</tspan></text></svg><svg font-family="Lucida Console" font-size="10" height="13.0" width="54.0" x="48.0" y="436.0"><defs /><text x="0" y="10.0"><tspan fill="rgb(0,0,0)">xmax: 121</tspan></text></svg><svg font-family="Lucida Console" font-size="10" height="13.0" width="54.0" x="48.0" y="449.0"><defs /><text x="0" y="10.0"><tspan fill="rgb(0,0,0)">ymax: 106</tspan></text></svg><svg font-family="Lucida Console" font-size="10" height="13.0" width="42.0" x="24.0" y="462.0"><defs /><text x="0" y="10.0"><tspan fill="rgb(0,0,0)">object:</tspan><tspan fill="rgb(0,128,255)" /></text></svg><svg font-family="Lucida Console" font-size="10" height="13.0" width="42.0" x="36.0" y="475.0"><defs /><text x="0" y="10.0"><tspan fill="rgb(0,0,0)">name: 4</tspan></text></svg><svg font-family="Lucida Console" font-size="10" height="13.0" width="72.0" x="36.0" y="488.0"><defs /><text x="0" y="10.0"><tspan fill="rgb(0,0,0)">difficult: 0</tspan></text></svg><svg font-family="Lucida Console" font-size="10" height="13.0" width="42.0" x="36.0" y="501.0"><defs /><text x="0" y="10.0"><tspan fill="rgb(0,0,0)">bndbox:</tspan><tspan fill="rgb(0,128,255)" /></text></svg><svg font-family="Lucida Console" font-size="10" height="13.0" width="54.0" x="48.0" y="514.0"><defs /><text x="0" y="10.0"><tspan fill="rgb(0,0,0)">xmin: 127</tspan></text></svg><svg font-family="Lucida Console" font-size="10" height="13.0" width="48.0" x="48.0" y="527.0"><defs /><text x="0" y="10.0"><tspan fill="rgb(0,0,0)">ymin: 68</tspan></text></svg><svg font-family="Lucida Console" font-size="10" height="13.0" width="54.0" x="48.0" y="540.0"><defs /><text x="0" y="10.0"><tspan fill="rgb(0,0,0)">xmax: 204</tspan></text></svg><svg font-family="Lucida Console" font-size="10" height="13.0" width="54.0" x="48.0" y="553.0"><defs /><text x="0" y="10.0"><tspan fill="rgb(0,0,0)">ymax: 105</tspan></text></svg><svg font-family="Lucida Console" font-size="10" height="13.0" width="42.0" x="24.0" y="566.0"><defs /><text x="0" y="10.0"><tspan fill="rgb(0,0,0)">object:</tspan><tspan fill="rgb(0,128,255)" /></text></svg><svg font-family="Lucida Console" font-size="10" height="13.0" width="42.0" x="36.0" y="579.0"><defs /><text x="0" y="10.0"><tspan fill="rgb(0,0,0)">name: 4</tspan></text></svg><svg font-family="Lucida Console" font-size="10" height="13.0" width="72.0" x="36.0" y="592.0"><defs /><text x="0" y="10.0"><tspan fill="rgb(0,0,0)">difficult: 0</tspan></text></svg><svg font-family="Lucida Console" font-size="10" height="13.0" width="42.0" x="36.0" y="605.0"><defs /><text x="0" y="10.0"><tspan fill="rgb(0,0,0)">bndbox:</tspan><tspan fill="rgb(0,128,255)" /></text></svg><svg font-family="Lucida Console" font-size="10" height="13.0" width="54.0" x="48.0" y="618.0"><defs /><text x="0" y="10.0"><tspan fill="rgb(0,0,0)">xmin: 207</tspan></text></svg><svg font-family="Lucida Console" font-size="10" height="13.0" width="48.0" x="48.0" y="631.0"><defs /><text x="0" y="10.0"><tspan fill="rgb(0,0,0)">ymin: 65</tspan></text></svg><svg font-family="Lucida Console" font-size="10" height="13.0" width="54.0" x="48.0" y="644.0"><defs /><text x="0" y="10.0"><tspan fill="rgb(0,0,0)">xmax: 232</tspan></text></svg><svg font-family="Lucida Console" font-size="10" height="13.0" width="54.0" x="48.0" y="657.0"><defs /><text x="0" y="10.0"><tspan fill="rgb(0,0,0)">ymax: 105</tspan></text></svg><svg font-family="Lucida Console" font-size="10" height="13.0" width="42.0" x="24.0" y="670.0"><defs /><text x="0" y="10.0"><tspan fill="rgb(0,0,0)">object:</tspan><tspan fill="rgb(0,128,255)" /></text></svg><svg font-family="Lucida Console" font-size="10" height="13.0" width="42.0" x="36.0" y="683.0"><defs /><text x="0" y="10.0"><tspan fill="rgb(0,0,0)">name: 4</tspan></text></svg><svg font-family="Lucida Console" font-size="10" height="13.0" width="72.0" x="36.0" y="696.0"><defs /><text x="0" y="10.0"><tspan fill="rgb(0,0,0)">difficult: 0</tspan></text></svg><svg font-family="Lucida Console" font-size="10" height="13.0" width="42.0" x="36.0" y="709.0"><defs /><text x="0" y="10.0"><tspan fill="rgb(0,0,0)">bndbox:</tspan><tspan fill="rgb(0,128,255)" /></text></svg><svg font-family="Lucida Console" font-size="10" height="13.0" width="54.0" x="48.0" y="722.0"><defs /><text x="0" y="10.0"><tspan fill="rgb(0,0,0)">xmin: 268</tspan></text></svg><svg font-family="Lucida Console" font-size="10" height="13.0" width="48.0" x="48.0" y="735.0"><defs /><text x="0" y="10.0"><tspan fill="rgb(0,0,0)">ymin: 65</tspan></text></svg><svg font-family="Lucida Console" font-size="10" height="13.0" width="54.0" x="48.0" y="748.0"><defs /><text x="0" y="10.0"><tspan fill="rgb(0,0,0)">xmax: 323</tspan></text></svg><svg font-family="Lucida Console" font-size="10" height="13.0" width="54.0" x="48.0" y="761.0"><defs /><text x="0" y="10.0"><tspan fill="rgb(0,0,0)">ymax: 105</tspan></text></svg><svg font-family="Lucida Console" font-size="10" height="13.0" width="42.0" x="24.0" y="774.0"><defs /><text x="0" y="10.0"><tspan fill="rgb(0,0,0)">object:</tspan><tspan fill="rgb(0,128,255)" /></text></svg><svg font-family="Lucida Console" font-size="10" height="13.0" width="42.0" x="36.0" y="787.0"><defs /><text x="0" y="10.0"><tspan fill="rgb(0,0,0)">name: 4</tspan></text></svg><svg font-family="Lucida Console" font-size="10" height="13.0" width="72.0" x="36.0" y="800.0"><defs /><text x="0" y="10.0"><tspan fill="rgb(0,0,0)">difficult: 0</tspan></text></svg><svg font-family="Lucida Console" font-size="10" height="13.0" width="42.0" x="36.0" y="813.0"><defs /><text x="0" y="10.0"><tspan fill="rgb(0,0,0)">bndbox:</tspan><tspan fill="rgb(0,128,255)" /></text></svg><svg font-family="Lucida Console" font-size="10" height="13.0" width="54.0" x="48.0" y="826.0"><defs /><text x="0" y="10.0"><tspan fill="rgb(0,0,0)">xmin: 329</tspan></text></svg><svg font-family="Lucida Console" font-size="10" height="13.0" width="48.0" x="48.0" y="839.0"><defs /><text x="0" y="10.0"><tspan fill="rgb(0,0,0)">ymin: 67</tspan></text></svg><svg font-family="Lucida Console" font-size="10" height="13.0" width="54.0" x="48.0" y="852.0"><defs /><text x="0" y="10.0"><tspan fill="rgb(0,0,0)">xmax: 386</tspan></text></svg><svg font-family="Lucida Console" font-size="10" height="13.0" width="54.0" x="48.0" y="865.0"><defs /><text x="0" y="10.0"><tspan fill="rgb(0,0,0)">ymax: 105</tspan></text></svg></svg><svg baseProfile="full" height="137.5" version="1.1" width="198.0" x="634.8" xmlns="http://www.w3.org/2000/svg" xmlns:ev="http://www.w3.org/2001/xml-events" xmlns:xlink="http://www.w3.org/1999/xlink" y="0"><defs /><svg height="137.5" width="198.0" x="12.0" y="0"><defs /><svg height="12.5" viewBox="0,0,96.0,12.5" width="96.0" x="12.0" y="0"><defs /><text fill="rgb(0,0,0)" font-family="Lucida Console" font-size="10" opacity="1.0" x="0" y="9.375">DiffxNodeUnknown</text><rect fill="rgb(208,208,208)" height="12.5" opacity="0.3" width="96.0" x="0" y="0" /></svg><svg height="12.5" viewBox="0,0,108.0,12.5" width="108.0" x="12.0" y="12.5"><defs /><text fill="rgb(0,0,0)" font-family="Lucida Console" font-size="10" opacity="1.0" x="0" y="9.375">DiffxNodeUnchanged</text><rect fill="rgb(126,98,161)" height="12.5" opacity="0.3" width="108.0" x="0" y="0" /></svg><svg height="12.5" viewBox="0,0,96.0,12.5" width="96.0" x="12.0" y="25.0"><defs /><text fill="rgb(0,0,0)" font-family="Lucida Console" font-size="10" opacity="1.0" x="0" y="9.375">DiffxNodeChanged</text><rect fill="rgb(252,209,42)" height="12.5" opacity="0.3" width="96.0" x="0" y="0" /></svg><svg height="12.5" viewBox="0,0,96.0,12.5" width="96.0" x="12.0" y="37.5"><defs /><text fill="rgb(0,0,0)" font-family="Lucida Console" font-size="10" opacity="1.0" x="0" y="9.375">DiffxNodeDeleted</text><rect fill="rgb(255,0,255)" height="12.5" opacity="0.3" width="96.0" x="0" y="0" /></svg><svg height="12.5" viewBox="0,0,84.0,12.5" width="84.0" x="12.0" y="50.0"><defs /><text fill="rgb(0,0,0)" font-family="Lucida Console" font-size="10" opacity="1.0" x="0" y="9.375">DiffxNodeAdded</text><rect fill="rgb(15,255,0)" height="12.5" opacity="0.3" width="84.0" x="0" y="0" /></svg><svg height="12.5" viewBox="0,0,84.0,12.5" width="84.0" x="12.0" y="62.5"><defs /><text fill="rgb(0,0,0)" font-family="Lucida Console" font-size="10" opacity="1.0" x="0" y="9.375">DiffxNodeMoved</text><rect fill="rgb(30,45,210)" height="12.5" opacity="0.3" width="84.0" x="0" y="0" /></svg><svg height="12.5" viewBox="0,0,120.0,12.5" width="120.0" x="12.0" y="75.0"><defs /><text fill="rgb(0,0,0)" font-family="Lucida Console" font-size="10" opacity="1.0" x="0" y="9.375">DiffxParentNodeMoved</text><rect fill="rgb(85,153,255)" height="12.5" opacity="0.3" width="120.0" x="0" y="0" /></svg><svg height="12.5" viewBox="0,0,102.0,12.5" width="102.0" x="12.0" y="87.5"><defs /><text fill="rgb(0,0,0)" font-family="Lucida Console" font-size="10" opacity="1.0" x="0" y="9.375">DiffxNodeTagConsi</text><rect fill="rgb(0,160,112)" height="12.5" opacity="0.3" width="102.0" x="0" y="0" /></svg><svg height="12.5" viewBox="0,0,156.0,12.5" width="156.0" x="12.0" y="100.0"><defs /><text fill="rgb(0,0,0)" font-family="Lucida Console" font-size="10" opacity="1.0" x="0" y="9.375">DiffxNodeTagAttriNameConsi</text><rect fill="rgb(0,208,224)" height="12.5" opacity="0.3" width="156.0" x="0" y="0" /></svg><svg height="12.5" viewBox="0,0,186.0,12.5" width="186.0" x="12.0" y="112.5"><defs /><text fill="rgb(0,0,0)" font-family="Lucida Console" font-size="10" opacity="1.0" x="0" y="9.375">DiffxNodeTagAttriNameValueConsi</text><rect fill="rgb(0,160,240)" height="12.5" opacity="0.3" width="186.0" x="0" y="0" /></svg><svg height="12.5" viewBox="0,0,168.0,12.5" width="168.0" x="12.0" y="125.0"><defs /><text fill="rgb(0,0,0)" font-family="Lucida Console" font-size="10" opacity="1.0" x="0" y="9.375">DiffxNodeTextAttriValueConsi</text><rect fill="rgb(0,112,160)" height="12.5" opacity="0.3" width="168.0" x="0" y="0" /></svg></svg></svg><polyline fill="rgb(85,153,255)" opacity="0.3" points="12.0,20.0 426.0,20.0 511.2,20.0 589.2,20.0 589.2,33.0 511.2,33.0 426.0,33.0 12.0,33.0 12.0,20.0" stroke="rgb(85,153,255)" stroke-width="0.5" /><polyline fill="rgb(85,153,255)" opacity="0.3" points="24.0,163.0 426.0,163.0 511.2,150.0 577.2,150.0 577.2,163.0 511.2,163.0 426.0,176.0 24.0,176.0 24.0,163.0" stroke="rgb(85,153,255)" stroke-width="0.5" /><polyline fill="rgb(85,153,255)" opacity="0.3" points="24.0,293.0 426.0,293.0 511.2,254.0 577.2,254.0 577.2,267.0 511.2,267.0 426.0,306.0 24.0,306.0 24.0,293.0" stroke="rgb(85,153,255)" stroke-width="0.5" /><polyline fill="rgb(85,153,255)" opacity="0.3" points="24.0,423.0 426.0,423.0 511.2,358.0 577.2,358.0 577.2,371.0 511.2,371.0 426.0,436.0 24.0,436.0 24.0,423.0" stroke="rgb(85,153,255)" stroke-width="0.5" /><polyline fill="rgb(85,153,255)" opacity="0.3" points="24.0,553.0 426.0,553.0 511.2,462.0 577.2,462.0 577.2,475.0 511.2,475.0 426.0,566.0 24.0,566.0 24.0,553.0" stroke="rgb(85,153,255)" stroke-width="0.5" /><polyline fill="rgb(85,153,255)" opacity="0.3" points="24.0,683.0 426.0,683.0 511.2,566.0 577.2,566.0 577.2,579.0 511.2,579.0 426.0,696.0 24.0,696.0 24.0,683.0" stroke="rgb(85,153,255)" stroke-width="0.5" /><polyline fill="rgb(85,153,255)" opacity="0.3" points="24.0,813.0 426.0,813.0 511.2,670.0 577.2,670.0 577.2,683.0 511.2,683.0 426.0,826.0 24.0,826.0 24.0,813.0" stroke="rgb(85,153,255)" stroke-width="0.5" /><polyline fill="rgb(85,153,255)" opacity="0.3" points="24.0,943.0 426.0,943.0 511.2,774.0 577.2,774.0 577.2,787.0 511.2,787.0 426.0,956.0 24.0,956.0 24.0,943.0" stroke="rgb(85,153,255)" stroke-width="0.5" /><polyline fill="rgb(85,153,255)" opacity="0.3" points="36.0,228.0 426.0,228.0 511.2,189.0 589.2,189.0 589.2,202.0 511.2,202.0 426.0,241.0 36.0,241.0 36.0,228.0" stroke="rgb(85,153,255)" stroke-width="0.5" /><polyline fill="rgb(85,153,255)" opacity="0.3" points="36.0,358.0 426.0,358.0 511.2,293.0 589.2,293.0 589.2,306.0 511.2,306.0 426.0,371.0 36.0,371.0 36.0,358.0" stroke="rgb(85,153,255)" stroke-width="0.5" /><polyline fill="rgb(85,153,255)" opacity="0.3" points="36.0,488.0 426.0,488.0 511.2,397.0 589.2,397.0 589.2,410.0 511.2,410.0 426.0,501.0 36.0,501.0 36.0,488.0" stroke="rgb(85,153,255)" stroke-width="0.5" /><polyline fill="rgb(85,153,255)" opacity="0.3" points="36.0,618.0 426.0,618.0 511.2,501.0 589.2,501.0 589.2,514.0 511.2,514.0 426.0,631.0 36.0,631.0 36.0,618.0" stroke="rgb(85,153,255)" stroke-width="0.5" /><polyline fill="rgb(85,153,255)" opacity="0.3" points="36.0,748.0 426.0,748.0 511.2,605.0 589.2,605.0 589.2,618.0 511.2,618.0 426.0,761.0 36.0,761.0 36.0,748.0" stroke="rgb(85,153,255)" stroke-width="0.5" /><polyline fill="rgb(85,153,255)" opacity="0.3" points="36.0,878.0 426.0,878.0 511.2,709.0 589.2,709.0 589.2,722.0 511.2,722.0 426.0,891.0 36.0,891.0 36.0,878.0" stroke="rgb(85,153,255)" stroke-width="0.5" /><polyline fill="rgb(85,153,255)" opacity="0.3" points="36.0,1008.0 426.0,1008.0 511.2,813.0 589.2,813.0 589.2,826.0 511.2,826.0 426.0,1021.0 36.0,1021.0 36.0,1008.0" stroke="rgb(85,153,255)" stroke-width="0.5" /><polyline fill="rgb(85,153,255)" opacity="0.3" points="24.0,72.0 426.0,72.0 511.2,59.0 577.2,59.0 577.2,72.0 511.2,72.0 426.0,85.0 24.0,85.0 24.0,72.0" stroke="rgb(85,153,255)" stroke-width="0.5" /><polyline fill="rgb(126,98,161)" opacity="0.3" points="24.0,98.0 426.0,98.0 511.2,85.0 565.2,85.0 565.2,98.0 511.2,98.0 426.0,111.0 24.0,111.0 24.0,98.0" stroke="rgb(126,98,161)" stroke-width="0.5" /><polyline fill="rgb(126,98,161)" opacity="0.3" points="24.0,46.0 426.0,46.0 511.2,46.0 685.2,46.0 685.2,59.0 511.2,59.0 426.0,59.0 24.0,59.0 24.0,46.0" stroke="rgb(126,98,161)" stroke-width="0.5" /><polyline fill="rgb(126,98,161)" opacity="0.3" points="36.0,215.0 426.0,215.0 511.2,176.0 619.2,176.0 619.2,189.0 511.2,189.0 426.0,228.0 36.0,228.0 36.0,215.0" stroke="rgb(126,98,161)" stroke-width="0.5" /><polyline fill="rgb(126,98,161)" opacity="0.3" points="36.0,176.0 426.0,176.0 511.2,163.0 589.2,163.0 589.2,176.0 511.2,176.0 426.0,189.0 36.0,189.0 36.0,176.0" stroke="rgb(126,98,161)" stroke-width="0.5" /><polyline fill="rgb(126,98,161)" opacity="0.3" points="36.0,345.0 426.0,345.0 511.2,280.0 619.2,280.0 619.2,293.0 511.2,293.0 426.0,358.0 36.0,358.0 36.0,345.0" stroke="rgb(126,98,161)" stroke-width="0.5" /><polyline fill="rgb(126,98,161)" opacity="0.3" points="36.0,306.0 426.0,306.0 511.2,267.0 589.2,267.0 589.2,280.0 511.2,280.0 426.0,319.0 36.0,319.0 36.0,306.0" stroke="rgb(126,98,161)" stroke-width="0.5" /><polyline fill="rgb(126,98,161)" opacity="0.3" points="36.0,475.0 426.0,475.0 511.2,384.0 619.2,384.0 619.2,397.0 511.2,397.0 426.0,488.0 36.0,488.0 36.0,475.0" stroke="rgb(126,98,161)" stroke-width="0.5" /><polyline fill="rgb(126,98,161)" opacity="0.3" points="36.0,436.0 426.0,436.0 511.2,371.0 589.2,371.0 589.2,384.0 511.2,384.0 426.0,449.0 36.0,449.0 36.0,436.0" stroke="rgb(126,98,161)" stroke-width="0.5" /><polyline fill="rgb(126,98,161)" opacity="0.3" points="36.0,605.0 426.0,605.0 511.2,488.0 619.2,488.0 619.2,501.0 511.2,501.0 426.0,618.0 36.0,618.0 36.0,605.0" stroke="rgb(126,98,161)" stroke-width="0.5" /><polyline fill="rgb(126,98,161)" opacity="0.3" points="36.0,566.0 426.0,566.0 511.2,475.0 589.2,475.0 589.2,488.0 511.2,488.0 426.0,579.0 36.0,579.0 36.0,566.0" stroke="rgb(126,98,161)" stroke-width="0.5" /><polyline fill="rgb(126,98,161)" opacity="0.3" points="36.0,735.0 426.0,735.0 511.2,592.0 619.2,592.0 619.2,605.0 511.2,605.0 426.0,748.0 36.0,748.0 36.0,735.0" stroke="rgb(126,98,161)" stroke-width="0.5" /><polyline fill="rgb(126,98,161)" opacity="0.3" points="36.0,696.0 426.0,696.0 511.2,579.0 589.2,579.0 589.2,592.0 511.2,592.0 426.0,709.0 36.0,709.0 36.0,696.0" stroke="rgb(126,98,161)" stroke-width="0.5" /><polyline fill="rgb(126,98,161)" opacity="0.3" points="36.0,865.0 426.0,865.0 511.2,696.0 619.2,696.0 619.2,709.0 511.2,709.0 426.0,878.0 36.0,878.0 36.0,865.0" stroke="rgb(126,98,161)" stroke-width="0.5" /><polyline fill="rgb(126,98,161)" opacity="0.3" points="36.0,826.0 426.0,826.0 511.2,683.0 589.2,683.0 589.2,696.0 511.2,696.0 426.0,839.0 36.0,839.0 36.0,826.0" stroke="rgb(126,98,161)" stroke-width="0.5" /><polyline fill="rgb(126,98,161)" opacity="0.3" points="36.0,995.0 426.0,995.0 511.2,800.0 619.2,800.0 619.2,813.0 511.2,813.0 426.0,1008.0 36.0,1008.0 36.0,995.0" stroke="rgb(126,98,161)" stroke-width="0.5" /><polyline fill="rgb(126,98,161)" opacity="0.3" points="36.0,956.0 426.0,956.0 511.2,787.0 589.2,787.0 589.2,800.0 511.2,800.0 426.0,969.0 36.0,969.0 36.0,956.0" stroke="rgb(126,98,161)" stroke-width="0.5" /><polyline fill="rgb(126,98,161)" opacity="0.3" points="24.0,150.0 426.0,150.0 511.2,137.0 607.2,137.0 607.2,150.0 511.2,150.0 426.0,163.0 24.0,163.0 24.0,150.0" stroke="rgb(126,98,161)" stroke-width="0.5" /><polyline fill="rgb(126,98,161)" opacity="0.3" points="36.0,137.0 426.0,137.0 511.2,124.0 595.2,124.0 595.2,137.0 511.2,137.0 426.0,150.0 36.0,150.0 36.0,137.0" stroke="rgb(126,98,161)" stroke-width="0.5" /><polyline fill="rgb(126,98,161)" opacity="0.3" points="36.0,124.0 426.0,124.0 511.2,111.0 613.2,111.0 613.2,124.0 511.2,124.0 426.0,137.0 36.0,137.0 36.0,124.0" stroke="rgb(126,98,161)" stroke-width="0.5" /><polyline fill="rgb(126,98,161)" opacity="0.3" points="36.0,111.0 426.0,111.0 511.2,98.0 607.2,98.0 607.2,111.0 511.2,111.0 426.0,124.0 36.0,124.0 36.0,111.0" stroke="rgb(126,98,161)" stroke-width="0.5" /><polyline fill="rgb(0,160,240)" opacity="0.3" points="24.0,33.0 426.0,33.0 511.2,33.0 631.2,33.0 631.2,46.0 511.2,46.0 426.0,46.0 24.0,46.0 24.0,33.0" stroke="rgb(0,160,240)" stroke-width="0.5" /><polyline fill="rgb(0,160,240)" opacity="0.3" points="48.0,267.0 426.0,267.0 511.2,228.0 613.2,228.0 613.2,241.0 511.2,241.0 426.0,280.0 48.0,280.0 48.0,267.0" stroke="rgb(0,160,240)" stroke-width="0.5" /><polyline fill="rgb(0,160,240)" opacity="0.3" points="48.0,241.0 426.0,241.0 511.2,202.0 613.2,202.0 613.2,215.0 511.2,215.0 426.0,254.0 48.0,254.0 48.0,241.0" stroke="rgb(0,160,240)" stroke-width="0.5" /><polyline fill="rgb(0,160,240)" opacity="0.3" points="48.0,280.0 426.0,280.0 511.2,241.0 613.2,241.0 613.2,254.0 511.2,254.0 426.0,293.0 48.0,293.0 48.0,280.0" stroke="rgb(0,160,240)" stroke-width="0.5" /><polyline fill="rgb(0,160,240)" opacity="0.3" points="48.0,254.0 426.0,254.0 511.2,215.0 607.2,215.0 607.2,228.0 511.2,228.0 426.0,267.0 48.0,267.0 48.0,254.0" stroke="rgb(0,160,240)" stroke-width="0.5" /><polyline fill="rgb(0,160,240)" opacity="0.3" points="48.0,397.0 426.0,397.0 511.2,332.0 607.2,332.0 607.2,345.0 511.2,345.0 426.0,410.0 48.0,410.0 48.0,397.0" stroke="rgb(0,160,240)" stroke-width="0.5" /><polyline fill="rgb(0,160,240)" opacity="0.3" points="48.0,371.0 426.0,371.0 511.2,306.0 601.2,306.0 601.2,319.0 511.2,319.0 426.0,384.0 48.0,384.0 48.0,371.0" stroke="rgb(0,160,240)" stroke-width="0.5" /><polyline fill="rgb(0,160,240)" opacity="0.3" points="48.0,410.0 426.0,410.0 511.2,345.0 613.2,345.0 613.2,358.0 511.2,358.0 426.0,423.0 48.0,423.0 48.0,410.0" stroke="rgb(0,160,240)" stroke-width="0.5" /><polyline fill="rgb(0,160,240)" opacity="0.3" points="48.0,384.0 426.0,384.0 511.2,319.0 607.2,319.0 607.2,332.0 511.2,332.0 426.0,397.0 48.0,397.0 48.0,384.0" stroke="rgb(0,160,240)" stroke-width="0.5" /><polyline fill="rgb(0,160,240)" opacity="0.3" points="48.0,527.0 426.0,527.0 511.2,436.0 613.2,436.0 613.2,449.0 511.2,449.0 426.0,540.0 48.0,540.0 48.0,527.0" stroke="rgb(0,160,240)" stroke-width="0.5" /><polyline fill="rgb(0,160,240)" opacity="0.3" points="48.0,501.0 426.0,501.0 511.2,410.0 607.2,410.0 607.2,423.0 511.2,423.0 426.0,514.0 48.0,514.0 48.0,501.0" stroke="rgb(0,160,240)" stroke-width="0.5" /><polyline fill="rgb(0,160,240)" opacity="0.3" points="48.0,540.0 426.0,540.0 511.2,449.0 613.2,449.0 613.2,462.0 511.2,462.0 426.0,553.0 48.0,553.0 48.0,540.0" stroke="rgb(0,160,240)" stroke-width="0.5" /><polyline fill="rgb(0,160,240)" opacity="0.3" points="48.0,514.0 426.0,514.0 511.2,423.0 607.2,423.0 607.2,436.0 511.2,436.0 426.0,527.0 48.0,527.0 48.0,514.0" stroke="rgb(0,160,240)" stroke-width="0.5" /><polyline fill="rgb(0,160,240)" opacity="0.3" points="48.0,657.0 426.0,657.0 511.2,540.0 613.2,540.0 613.2,553.0 511.2,553.0 426.0,670.0 48.0,670.0 48.0,657.0" stroke="rgb(0,160,240)" stroke-width="0.5" /><polyline fill="rgb(0,160,240)" opacity="0.3" points="48.0,631.0 426.0,631.0 511.2,514.0 613.2,514.0 613.2,527.0 511.2,527.0 426.0,644.0 48.0,644.0 48.0,631.0" stroke="rgb(0,160,240)" stroke-width="0.5" /><polyline fill="rgb(0,160,240)" opacity="0.3" points="48.0,670.0 426.0,670.0 511.2,553.0 613.2,553.0 613.2,566.0 511.2,566.0 426.0,683.0 48.0,683.0 48.0,670.0" stroke="rgb(0,160,240)" stroke-width="0.5" /><polyline fill="rgb(0,160,240)" opacity="0.3" points="48.0,644.0 426.0,644.0 511.2,527.0 607.2,527.0 607.2,540.0 511.2,540.0 426.0,657.0 48.0,657.0 48.0,644.0" stroke="rgb(0,160,240)" stroke-width="0.5" /><polyline fill="rgb(0,160,240)" opacity="0.3" points="48.0,787.0 426.0,787.0 511.2,644.0 613.2,644.0 613.2,657.0 511.2,657.0 426.0,800.0 48.0,800.0 48.0,787.0" stroke="rgb(0,160,240)" stroke-width="0.5" /><polyline fill="rgb(0,160,240)" opacity="0.3" points="48.0,761.0 426.0,761.0 511.2,618.0 613.2,618.0 613.2,631.0 511.2,631.0 426.0,774.0 48.0,774.0 48.0,761.0" stroke="rgb(0,160,240)" stroke-width="0.5" /><polyline fill="rgb(0,160,240)" opacity="0.3" points="48.0,800.0 426.0,800.0 511.2,657.0 613.2,657.0 613.2,670.0 511.2,670.0 426.0,813.0 48.0,813.0 48.0,800.0" stroke="rgb(0,160,240)" stroke-width="0.5" /><polyline fill="rgb(0,160,240)" opacity="0.3" points="48.0,774.0 426.0,774.0 511.2,631.0 607.2,631.0 607.2,644.0 511.2,644.0 426.0,787.0 48.0,787.0 48.0,774.0" stroke="rgb(0,160,240)" stroke-width="0.5" /><polyline fill="rgb(0,160,240)" opacity="0.3" points="48.0,917.0 426.0,917.0 511.2,748.0 613.2,748.0 613.2,761.0 511.2,761.0 426.0,930.0 48.0,930.0 48.0,917.0" stroke="rgb(0,160,240)" stroke-width="0.5" /><polyline fill="rgb(0,160,240)" opacity="0.3" points="48.0,891.0 426.0,891.0 511.2,722.0 613.2,722.0 613.2,735.0 511.2,735.0 426.0,904.0 48.0,904.0 48.0,891.0" stroke="rgb(0,160,240)" stroke-width="0.5" /><polyline fill="rgb(0,160,240)" opacity="0.3" points="48.0,930.0 426.0,930.0 511.2,761.0 613.2,761.0 613.2,774.0 511.2,774.0 426.0,943.0 48.0,943.0 48.0,930.0" stroke="rgb(0,160,240)" stroke-width="0.5" /><polyline fill="rgb(0,160,240)" opacity="0.3" points="48.0,904.0 426.0,904.0 511.2,735.0 607.2,735.0 607.2,748.0 511.2,748.0 426.0,917.0 48.0,917.0 48.0,904.0" stroke="rgb(0,160,240)" stroke-width="0.5" /><polyline fill="rgb(0,160,240)" opacity="0.3" points="48.0,1047.0 426.0,1047.0 511.2,852.0 613.2,852.0 613.2,865.0 511.2,865.0 426.0,1060.0 48.0,1060.0 48.0,1047.0" stroke="rgb(0,160,240)" stroke-width="0.5" /><polyline fill="rgb(0,160,240)" opacity="0.3" points="48.0,1021.0 426.0,1021.0 511.2,826.0 613.2,826.0 613.2,839.0 511.2,839.0 426.0,1034.0 48.0,1034.0 48.0,1021.0" stroke="rgb(0,160,240)" stroke-width="0.5" /><polyline fill="rgb(0,160,240)" opacity="0.3" points="48.0,1060.0 426.0,1060.0 511.2,865.0 613.2,865.0 613.2,878.0 511.2,878.0 426.0,1073.0 48.0,1073.0 48.0,1060.0" stroke="rgb(0,160,240)" stroke-width="0.5" /><polyline fill="rgb(0,160,240)" opacity="0.3" points="48.0,1034.0 426.0,1034.0 511.2,839.0 607.2,839.0 607.2,852.0 511.2,852.0 426.0,1047.0 48.0,1047.0 48.0,1034.0" stroke="rgb(0,160,240)" stroke-width="0.5" /><polyline fill="rgb(0,160,240)" opacity="0.3" points="36.0,85.0 426.0,85.0 511.2,72.0 643.2,72.0 643.2,85.0 511.2,85.0 426.0,98.0 36.0,98.0 36.0,85.0" stroke="rgb(0,160,240)" stroke-width="0.5" /><polyline fill="rgb(255,0,255)" opacity="0.3" points="36.0,189.0 138.0,189.0 138.0,202.0 36.0,202.0 36.0,189.0" stroke="rgb(255,0,255)" stroke-width="1" /><polyline fill="rgb(255,0,255)" opacity="0.3" points="36.0,202.0 108.0,202.0 108.0,215.0 36.0,215.0 36.0,202.0" stroke="rgb(255,0,255)" stroke-width="1" /><polyline fill="rgb(255,0,255)" opacity="0.3" points="36.0,319.0 138.0,319.0 138.0,332.0 36.0,332.0 36.0,319.0" stroke="rgb(255,0,255)" stroke-width="1" /><polyline fill="rgb(255,0,255)" opacity="0.3" points="36.0,332.0 108.0,332.0 108.0,345.0 36.0,345.0 36.0,332.0" stroke="rgb(255,0,255)" stroke-width="1" /><polyline fill="rgb(255,0,255)" opacity="0.3" points="36.0,449.0 138.0,449.0 138.0,462.0 36.0,462.0 36.0,449.0" stroke="rgb(255,0,255)" stroke-width="1" /><polyline fill="rgb(255,0,255)" opacity="0.3" points="36.0,462.0 108.0,462.0 108.0,475.0 36.0,475.0 36.0,462.0" stroke="rgb(255,0,255)" stroke-width="1" /><polyline fill="rgb(255,0,255)" opacity="0.3" points="36.0,579.0 138.0,579.0 138.0,592.0 36.0,592.0 36.0,579.0" stroke="rgb(255,0,255)" stroke-width="1" /><polyline fill="rgb(255,0,255)" opacity="0.3" points="36.0,592.0 108.0,592.0 108.0,605.0 36.0,605.0 36.0,592.0" stroke="rgb(255,0,255)" stroke-width="1" /><polyline fill="rgb(255,0,255)" opacity="0.3" points="36.0,709.0 138.0,709.0 138.0,722.0 36.0,722.0 36.0,709.0" stroke="rgb(255,0,255)" stroke-width="1" /><polyline fill="rgb(255,0,255)" opacity="0.3" points="36.0,722.0 108.0,722.0 108.0,735.0 36.0,735.0 36.0,722.0" stroke="rgb(255,0,255)" stroke-width="1" /><polyline fill="rgb(255,0,255)" opacity="0.3" points="36.0,839.0 138.0,839.0 138.0,852.0 36.0,852.0 36.0,839.0" stroke="rgb(255,0,255)" stroke-width="1" /><polyline fill="rgb(255,0,255)" opacity="0.3" points="36.0,852.0 108.0,852.0 108.0,865.0 36.0,865.0 36.0,852.0" stroke="rgb(255,0,255)" stroke-width="1" /><polyline fill="rgb(255,0,255)" opacity="0.3" points="36.0,969.0 138.0,969.0 138.0,982.0 36.0,982.0 36.0,969.0" stroke="rgb(255,0,255)" stroke-width="1" /><polyline fill="rgb(255,0,255)" opacity="0.3" points="36.0,982.0 108.0,982.0 108.0,995.0 36.0,995.0 36.0,982.0" stroke="rgb(255,0,255)" stroke-width="1" /><polyline fill="rgb(255,0,255)" opacity="0.3" points="24.0,59.0 426.0,59.0 426.0,72.0 24.0,72.0 24.0,59.0" stroke="rgb(255,0,255)" stroke-width="1" /></svg>